STARTFONT 2.3
FONT -FontForge-Indie Flower-Book-R-Normal--24-240-72-72-P-111-ISO10646-1
SIZE 24 72 72  4
FONTBOUNDINGBOX 31 36 -4 -12
COMMENT "Generated by fontforge, http://fontforge.sourceforge.net"
COMMENT "Copyright (c) 2010, Kimberly Geswein (kimberlygeswein.com)"
STARTPROPERTIES 40
FOUNDRY "FontForge"
FAMILY_NAME "Indie Flower"
WEIGHT_NAME "Book"
SLANT "R"
SETWIDTH_NAME "Normal"
ADD_STYLE_NAME ""
PIXEL_SIZE 24
POINT_SIZE 240
RESOLUTION_X 72
RESOLUTION_Y 72
SPACING "P"
AVERAGE_WIDTH 111
CHARSET_REGISTRY "ISO10646"
CHARSET_ENCODING "1"
FONTNAME_REGISTRY ""
CHARSET_COLLECTIONS "ISO8859-2 ISO8859-9 ISO8859-4 ISO10646-1"
BITS_PER_PIXEL 4
FONT_NAME "IndieFlower"
FACE_NAME "Indie Flower"
COPYRIGHT "Copyright (c) 2010, Kimberly Geswein (kimberlygeswein.com)"
FONT_VERSION "1.001 2010"
FONT_ASCENT 19
FONT_DESCENT 5
UNDERLINE_POSITION -2
UNDERLINE_THICKNESS 2
X_HEIGHT 9
CAP_HEIGHT 12
RAW_ASCENT 799
RAW_DESCENT 200
NORM_SPACE 9
RELATIVE_WEIGHT 40
RELATIVE_SETWIDTH 50
SUPERSCRIPT_X 0
SUPERSCRIPT_Y 11
SUPERSCRIPT_SIZE 15
SUBSCRIPT_X 0
SUBSCRIPT_Y 3
SUBSCRIPT_SIZE 15
AVG_LOWERCASE_WIDTH 107
AVG_UPPERCASE_WIDTH 130
ENDPROPERTIES
CHARS 356
STARTCHAR space
ENCODING 32
SWIDTH 375 0
DWIDTH 9 0
BBX 1 1 0 0
BITMAP
00
ENDCHAR
STARTCHAR exclam
ENCODING 33
SWIDTH 149 0
DWIDTH 4 0
BBX 4 20 0 0
BITMAP
1A10
1F10
1F10
1F10
1F20
1F20
1F20
1F20
1F30
1F30
1F30
1F40
0F40
0B20
0000
0000
0000
0650
8FF1
6FA0
ENDCHAR
STARTCHAR quotedbl
ENCODING 34
SWIDTH 234 0
DWIDTH 6 0
BBX 5 9 0 11
BITMAP
000100
500940
B50990
9A09B0
7E08D0
4F27E0
1E67E0
0774E0
000020
ENDCHAR
STARTCHAR numbersign
ENCODING 35
SWIDTH 768 0
DWIDTH 18 0
BBX 18 12 0 0
BITMAP
000000071054000000
0000000C3098000000
0000000C504C000000
0000000CB59FCCCC50
00157ADFFFFFB76890
3CFFC97CE11E600000
9B720008E14ECBDDD7
0000257DFFFFFC98A8
00AEFDBBF71D900000
00330001F40BA00000
00000000B209C00000
000000000006700000
ENDCHAR
STARTCHAR dollar
ENCODING 36
SWIDTH 581 0
DWIDTH 14 0
BBX 14 23 0 0
BITMAP
00000001000000
0000000A314000
0000001F369000
0000002F189000
0000004FCD9000
00001AFFDEE500
0001DCDD0BA200
0006F17B0B3000
0003F28A0C1000
00006EEA0E0000
000005FB7D0000
000000EDEF5000
000000E8DDE600
000000E5F53E50
000000F3F105E2
440002C4D000E7
9F600597C000D8
09F60989C000E6
003CCFABC005F2
00007FFFC04E80
00000BDFFFE700
00000BACB41000
00000659600000
ENDCHAR
STARTCHAR percent
ENCODING 37
SWIDTH 636 0
DWIDTH 15 0
BBX 15 15 0 0
BITMAP
0000000000006000
0000000000098000
05EFA200006C0000
3F95CC0003D20000
9B001E401D300000
B9000E30A6000000
6D33BB05C0000000
07EFA11E40012000
000000AB006FF900
000005F305F65F50
00001DB00D600B90
00007F304E000D80
0001E9006A006E20
0006E1004E9CF600
0008600006BB4000
ENDCHAR
STARTCHAR ampersand
ENCODING 38
SWIDTH 457 0
DWIDTH 11 0
BBX 11 17 0 0
BITMAP
000194000000
0006FE100000
0007FF400000
0007FF400000
0008FF200000
0009FD000000
0009F6000000
000BD007BC50
001EC00CD830
008EE10E5000
02F4983F1000
09A02EEC0000
2F400AF50000
7E000BF60000
BA008D7D0000
AD3AE2069000
2DFC30007100
ENDCHAR
STARTCHAR quotesingle
ENCODING 39
SWIDTH 102 0
DWIDTH 2 0
BBX 3 7 0 11
BITMAP
3100
8800
8C00
7E00
5F00
1F10
0300
ENDCHAR
STARTCHAR parenleft
ENCODING 40
SWIDTH 421 0
DWIDTH 10 0
BBX 10 15 0 -1
BITMAP
0000006CE5
00001BD888
0001C91000
000BA00000
007C100000
02F4000000
0AB0000000
2F50000000
6F00000000
8D00000000
6D00000000
3F20000000
0BC1000000
03EFA63000
002ADE8000
ENDCHAR
STARTCHAR parenright
ENCODING 41
SWIDTH 290 0
DWIDTH 7 0
BBX 7 17 0 -2
BITMAP
02100000
0BF90000
006FA000
0008F500
0000CC00
00005F30
00000E60
00000C80
00000D60
00002F20
0000AB00
0004F400
002EB000
02DE2000
2DF60000
BF700000
32000000
ENDCHAR
STARTCHAR asterisk
ENCODING 42
SWIDTH 412 0
DWIDTH 10 0
BBX 10 10 0 5
BITMAP
0000000171
0850604EC1
06FBFAF910
005FFFEB40
2A9EFFFA10
47EFBFF500
02F70EFC00
06C00AFF50
011007A420
0000022000
ENDCHAR
STARTCHAR plus
ENCODING 43
SWIDTH 459 0
DWIDTH 11 0
BBX 11 11 0 0
BITMAP
000010000000
0001E1000000
0000F5000000
0000C9000000
0000BD310000
258BFFFFED60
BEB9BFA88710
00005F500000
00002F500000
00000F500000
00000D300000
ENDCHAR
STARTCHAR comma
ENCODING 44
SWIDTH 130 0
DWIDTH 3 0
BBX 3 9 0 -5
BITMAP
1500
7F20
2F40
2F40
4F20
7F00
AC00
B700
5100
ENDCHAR
STARTCHAR hyphen
ENCODING 45
SWIDTH 375 0
DWIDTH 9 0
BBX 9 3 0 5
BITMAP
04789AA600
6FFDCBCE10
2200000000
ENDCHAR
STARTCHAR period
ENCODING 46
SWIDTH 204 0
DWIDTH 5 0
BBX 4 5 1 0
BITMAP
0610
7FC0
DFF3
CFF2
4E60
ENDCHAR
STARTCHAR slash
ENCODING 47
SWIDTH 309 0
DWIDTH 7 0
BBX 7 18 0 0
BITMAP
000000C0
000004E0
000007B0
00000B70
00001F30
00007E00
0000C900
0002F400
0008E000
000D9000
004F4000
009D0000
00E80000
05F20000
0CC00000
4F500000
9D000000
95000000
ENDCHAR
STARTCHAR zero
ENCODING 48
SWIDTH 430 0
DWIDTH 10 0
BBX 10 10 0 0
BITMAP
0006DEA100
00AD9AED20
08B1002CC0
3E200003F5
7A000000C9
79000000BA
4D000001E7
0C800008F2
02DC76AF70
0018DFD600
ENDCHAR
STARTCHAR one
ENCODING 49
SWIDTH 318 0
DWIDTH 8 0
BBX 8 15 0 0
BITMAP
00000010
000001E1
000004F1
000007E0
00001DD0
0001CFB0
001CFF90
01CC8F70
0BE26F50
8E307F30
21008F10
00009D00
0000AB00
0000B800
00009400
ENDCHAR
STARTCHAR two
ENCODING 50
SWIDTH 497 0
DWIDTH 12 0
BBX 12 13 0 0
BITMAP
000004DFA000
00000D83D800
00000E106E00
000004002F40
000000000F60
000000001F60
000000004F40
000000008E00
00000000D800
39730007B000
AFFFC89F3000
4FFFFFFFD960
02787656ADE2
ENDCHAR
STARTCHAR three
ENCODING 51
SWIDTH 430 0
DWIDTH 10 0
BBX 10 13 0 0
BITMAP
0599995000
1FB989E800
0400002F00
0000007E10
00037CD300
04FFFF3000
0059CFE700
0000028F80
00000004F3
6D100000C9
2DD30000BA
01BF9669F5
0005BEFC50
ENDCHAR
STARTCHAR four
ENCODING 52
SWIDTH 412 0
DWIDTH 10 0
BBX 10 15 0 0
BITMAP
0160000000
09D0000000
0E90000000
3F30000000
6D00000074
8A000001E6
89000008F4
6C00003FF1
2F4003EFD0
0BEABFFEC0
01CFFB38C0
00022007E0
00000007F2
00000006F3
00000004E1
ENDCHAR
STARTCHAR five
ENCODING 53
SWIDTH 571 0
DWIDTH 14 0
BBX 13 16 0 0
BITMAP
000007ACCCCA40
00006FC9899AB0
00003F10000000
0000A900000000
0003F300000000
000BF300000000
001FFFEA300000
0001358CF90000
000000004D9000
0000000003F300
0000000000B800
55000000009A00
8700000000DA00
6B3000001AF500
0AFEB99BFF8000
004ADEFEA30000
ENDCHAR
STARTCHAR six
ENCODING 54
SWIDTH 440 0
DWIDTH 11 0
BBX 10 15 0 0
BITMAP
0000000451
000006EFFC
0000AE7137
000AD20000
007D200000
02E3000000
0AA0120000
1FDEFFFA20
5FC6203CE1
8C000001E9
7A0000008D
6E0000008D
2FA00004E9
08FD99CFC1
007DFEB600
ENDCHAR
STARTCHAR seven
ENCODING 55
SWIDTH 412 0
DWIDTH 10 0
BBX 10 13 0 0
BITMAP
3CAA999200
168889F300
000002F300
000001F200
000003F100
000006F000
01CEEFFEC3
00566EC6B5
00000E8000
00001F4000
00004F1000
00008D0000
0000890000
ENDCHAR
STARTCHAR eight
ENCODING 56
SWIDTH 375 0
DWIDTH 9 0
BBX 9 14 0 0
BITMAP
004AA50000
06FDCF9000
4F7009E000
8B000AB000
6D204E2000
09E8E40000
008FF10000
01DABB1000
09D008C100
0E80009B00
0D90001F30
08E1000C40
00BD526E20
0007DFD500
ENDCHAR
STARTCHAR nine
ENCODING 57
SWIDTH 300 0
DWIDTH 7 0
BBX 7 14 0 0
BITMAP
03CFC600
2E835E60
8C000AD0
B9000DE0
AB003FB0
5F506F90
06DEFF70
00025F60
00000F50
00000F40
00000F40
00000F40
00000F40
00000D40
ENDCHAR
STARTCHAR colon
ENCODING 58
SWIDTH 84 0
DWIDTH 2 0
BBX 2 7 0 1
BITMAP
89
37
00
00
00
67
11
ENDCHAR
STARTCHAR semicolon
ENCODING 59
SWIDTH 128 0
DWIDTH 3 0
BBX 4 15 -1 -5
BITMAP
0230
08E0
0390
0000
0000
0000
0020
00A5
00C7
00E6
04F3
0BE0
3FA0
5F20
2300
ENDCHAR
STARTCHAR less
ENCODING 60
SWIDTH 487 0
DWIDTH 12 0
BBX 11 10 0 0
BITMAP
0000000017A0
00000004DC30
0000019F8000
00003DD30000
0007E8000000
02CD30000000
2DC100000000
CFFC86410000
16ACEFFFD600
00000134AE20
ENDCHAR
STARTCHAR equal
ENCODING 61
SWIDTH 524 0
DWIDTH 13 0
BBX 12 7 0 3
BITMAP
002344444430
5FFFFFFFFEFA
033333210046
000000000000
000000000000
256778889840
5DDDDDDDDDB1
ENDCHAR
STARTCHAR greater
ENCODING 62
SWIDTH 403 0
DWIDTH 10 0
BBX 10 11 0 0
BITMAP
4F80000000
08FC610000
003AFEA630
000027AEF7
00000008F6
0000005FA0
000008F900
0003CE5000
007FC20000
0AF8000000
4D30000000
ENDCHAR
STARTCHAR question
ENCODING 63
SWIDTH 272 0
DWIDTH 7 0
BBX 7 21 0 0
BITMAP
18A81000
ACADD200
4000B900
00005E00
00005F10
00008E00
0000DB00
0006F500
001ED000
007F5000
00DC0000
02F50000
01EFC800
00279700
00000000
00000000
00000000
00000000
00000000
00006800
00008B00
ENDCHAR
STARTCHAR at
ENCODING 64
SWIDTH 815 0
DWIDTH 20 0
BBX 19 23 0 -1
BITMAP
00000003564000000000
000006DFDDFE92000000
0001BE710016CF700000
001CB100000005DC2000
00AA00000000001BD200
05C0000000000000AD10
0C400000001000001E80
3C0000017DFFB50008C0
6700001CA3128F9004D0
860000B8000005F003E0
860004E10000B63004D0
680009800001FB0008B0
4C000C500002FC000D70
1F200C500003FD007F20
0A800990002DDFB9F800
03F302E957EC24CD7000
00AC002CFE8100000000
001E9000000000000000
0003EA00000000000000
00003EC2000000002300
000001AFA52236AEFB00
00000004BFFFFEB94000
00000000001100000000
ENDCHAR
STARTCHAR A
ENCODING 65
SWIDTH 562 0
DWIDTH 14 0
BBX 13 19 0 0
BITMAP
00000231000000
0004DEEF910000
003E5004DB0000
00A600002E6000
01E1000007E000
05A0000000E400
08700000009A00
09500000005E00
0B400000002F20
0C300000000F50
0D400000000F70
5FFFFEDCBABF90
2D910012466CA0
0A7000000009C0
0A8000000008C0
0AB000000008D0
08D00000000AC0
05F10000000DB0
01D20000000E60
ENDCHAR
STARTCHAR B
ENCODING 66
SWIDTH 741 0
DWIDTH 18 0
BBX 18 17 0 0
BITMAP
000257996200000000
18DFFFFFEFB2000000
6831CE4002AE200000
00005F10000C800000
00000E50000B700000
00000B80007E100000
000008C2AEF4000000
000005F3EFF9200000
000003F316CFE70000
000001F600028EB100
000000D9000001BC10
000000BB0000000C90
0000009D00000006F2
0000008D00000004F5
000005EC00000009F3
000003DFD86556BFA0
000000169CEFFEB600
ENDCHAR
STARTCHAR C
ENCODING 67
SWIDTH 515 0
DWIDTH 12 0
BBX 12 16 0 0
BITMAP
000000277100
00001AFFF600
0002DD51B500
002DA101B000
00B800001000
05B000000000
0C2000000000
3C0000000000
790000000000
890000000000
7A0000000000
5E0000000000
1F4000000000
0AC100002564
02ED99BEFFD4
002BFEB84100
ENDCHAR
STARTCHAR D
ENCODING 68
SWIDTH 741 0
DWIDTH 18 0
BBX 18 17 0 -1
BITMAP
000011000000000000
17BEFFFD9510000000
7D86547FDEE7100000
1000000E806DE60000
0000000B90009F8000
00000008A00006F700
00000006D000008F30
00000004F100000DA0
00000002F3000006E0
00000001F5000004F1
00000001F7000005F1
00000000F800000AD0
00000000E700005F80
00000000840006FD10
000001EB6336CFC200
0000007EFFFFD70000
000000002431000000
ENDCHAR
STARTCHAR E
ENCODING 69
SWIDTH 524 0
DWIDTH 13 0
BBX 12 15 0 0
BITMAP
1CCCBBBAAA40
3FA9998877B0
3F2000000000
3F2000000000
3F2000000000
3F2000136740
6FBABDFFD910
6F9764310000
5D0000000000
6C0000000000
7C0000000000
8C0000000000
7C0000000000
3FA889BCEFF4
05CEFFFECA50
ENDCHAR
STARTCHAR F
ENCODING 70
SWIDTH 514 0
DWIDTH 12 0
BBX 16 15 -1 0
BITMAP
0001245554320000
39DFFFFFFFFFEA30
6556EE522246AEF5
0000B90000000033
0000B90000000000
0000A90000000000
00009B0000000000
0002DFAABBA60000
00DDEFFFFDB50000
00001F6100000000
00000E7000000000
00000C8000000000
00000CB000000000
00000AE000000000
000005A000000000
ENDCHAR
STARTCHAR G
ENCODING 71
SWIDTH 571 0
DWIDTH 14 0
BBX 14 15 0 -2
BITMAP
00000000368400
0000017DFDDF50
00004DB5000220
0007E500000000
008E2000000000
05F30010000000
0C8000FCACDD40
2F200047777D90
3E000000000990
1F100000000C90
0AB10000018F90
02EE9889BEEF90
0028CCA7410C90
00000000000AE3
00000000000292
ENDCHAR
STARTCHAR H
ENCODING 72
SWIDTH 524 0
DWIDTH 13 0
BBX 12 17 0 0
BITMAP
000000000020
1600000001E2
2D00000002F0
1F00000002F0
1F20000002F0
0F30000003F1
0D50000003F1
0C7000005CF1
0B90005DFCF2
0AB17DF922F2
0CFFE81001F3
6EF7100000F4
06F2000000E5
02F2000000D7
01F3000000C8
00E3000000AB
00810000005C
ENDCHAR
STARTCHAR I
ENCODING 73
SWIDTH 167 0
DWIDTH 4 0
BBX 4 14 0 0
BITMAP
3000
9600
7C00
3F10
0E50
0A80
08B0
06E0
04F1
02F3
01F5
00E7
00C9
0078
ENDCHAR
STARTCHAR J
ENCODING 74
SWIDTH 439 0
DWIDTH 11 0
BBX 11 17 0 0
BITMAP
000000046000
00000006C000
00000003F100
00000001F400
00000000E700
00000000C900
00000000AB00
000000008D00
150000006E00
6A0000004F10
5E0000003F20
0C7000003F20
02D300003F10
004D20005F00
0005E4008C00
00004EB6D700
000002AEB000
ENDCHAR
STARTCHAR K
ENCODING 75
SWIDTH 468 0
DWIDTH 11 0
BBX 11 14 0 0
BITMAP
7600006D1000
7A0008F50000
6C007F600000
4D04F7000000
2F2E80000000
0FDA00000000
0DD100000000
0DF500000000
0DEF40000000
0D6BF6000000
0D708F910000
0B9003DD4000
09B00018FA10
05A000004D80
ENDCHAR
STARTCHAR L
ENCODING 76
SWIDTH 346 0
DWIDTH 8 0
BBX 8 14 0 -1
BITMAP
06500000
0C700000
0E700000
2F500000
3F300000
5F100000
6E000000
7D000000
8C000000
8C000000
6E200000
1DEBA875
029DFFFB
00000100
ENDCHAR
STARTCHAR M
ENCODING 77
SWIDTH 534 0
DWIDTH 13 0
BBX 13 15 0 0
BITMAP
58000000009100
6F80000005F400
0DF200000CF300
08FB00005FF200
06FFA226EFF100
07C5EFFFDCF100
08C0266304F200
08C0000002F300
09C0000001F500
0AC0000000E800
0AC0000000DA00
0AC0000000BD00
0AC0000000AF00
09C00000008F10
02300000005F20
ENDCHAR
STARTCHAR N
ENCODING 78
SWIDTH 609 0
DWIDTH 15 0
BBX 14 13 0 0
BITMAP
1B200000000000
0F600000008800
0DA00000008F40
0DE00000003FB0
0DF40000000AF2
0EFB00000002F7
0FFF20000000AB
2F2BA00000006E
3F03F50000007F
4F108E300000AC
4F300BE60006F6
5F4001AFECEFA0
2E100005ABA500
ENDCHAR
STARTCHAR O
ENCODING 79
SWIDTH 609 0
DWIDTH 15 0
BBX 14 12 0 0
BITMAP
00058840000000
01CECDFE920000
0BB20027DF8000
4E10000007FB00
7A000000004F90
890000000006F3
7B0000000000CA
4F20000000007D
0DC0000000008D
04FC30000007F6
005EF95469EE70
00028DFFC95100
ENDCHAR
STARTCHAR P
ENCODING 80
SWIDTH 627 0
DWIDTH 15 0
BBX 15 15 0 0
BITMAP
0014654200000000
2BFEEEFFEA500000
8D2000147BFD5000
75000050002AF800
000002D000006F40
000002E000000C90
000002F000000CA0
000002F200006F50
000001F8225BF800
000000FFFFFB3000
000000DD86200000
000000BB00000000
0000008C00000000
0000005D00000000
0000001B00000000
ENDCHAR
STARTCHAR Q
ENCODING 81
SWIDTH 642 0
DWIDTH 15 0
BBX 16 16 0 -3
BITMAP
00029CD930000000
005EB9AEF9100000
03E40001BFC20000
0C7000006CBE2000
2F200000980AD200
5F0000002100CC00
6E00000000002E50
4F000005100009A0
1F400009C00006B0
09C10001E8001C70
01DC30009F77EC10
002CFC99EFFFA100
00006BEEDBCF7000
000000000004E500
0000000000003EC2
00000000000003A5
ENDCHAR
STARTCHAR R
ENCODING 82
SWIDTH 579 0
DWIDTH 14 0
BBX 15 16 -1 -1
BITMAP
018BDEFED9400000
0CD866679CFC3000
3E100000004DD100
060080000001D700
0001F1000002E800
0001F300038EE300
0000FA9BEFE92000
0000DFFB85100000
0000AF4000000000
00008FE200000000
00005CAD10000000
00002F1AC2000000
00000D309D300000
0000096007F70000
00000440005EC300
000000000002AE20
ENDCHAR
STARTCHAR S
ENCODING 83
SWIDTH 627 0
DWIDTH 15 0
BBX 15 16 0 -1
BITMAP
0000014663000000
00008EDBBDFA1000
0009B200005DD000
000C500000014000
000A900000000000
0002E91000000000
00002BE710000000
0000005DE8100000
000000006DE80000
17000000017EC200
7D0000000001AD10
4F30000000002F50
08D3000000003F50
006EB7543347DC00
00005BEFFFFC8100
0000000122100000
ENDCHAR
STARTCHAR T
ENCODING 84
SWIDTH 581 0
DWIDTH 14 0
BBX 16 15 0 0
BITMAP
5554443220000000
7BDFFFFFFFEDB951
0000234BC4469DFD
00000008B0000012
00000007C0000000
00000006D0000000
00000004F0000000
00000003F2000000
00000001F4000000
00000000F6000000
00000000D9000000
00000000BC000000
000000009E000000
000000006F600000
000000001DB00000
ENDCHAR
STARTCHAR U
ENCODING 85
SWIDTH 571 0
DWIDTH 14 0
BBX 14 13 0 0
BITMAP
09B00000018000
2F20000004F100
4C00000005F300
5C00000004F400
5C00000002F500
4E00000000D700
2F100000009A00
0E400000007E10
0A900000009F50
05E1000005FFB0
00DC10018FADF1
004FEAAED403F4
0004CFD7000031
ENDCHAR
STARTCHAR V
ENCODING 86
SWIDTH 421 0
DWIDTH 10 0
BBX 10 13 0 0
BITMAP
3300000032
7E100000B7
2F900000F7
0CE10004F5
06F60007F3
01ED000AF0
008F400CC0
001FB01F80
0009F33F40
0002FA7D00
0000AFD800
00002FF200
0000097000
ENDCHAR
STARTCHAR W
ENCODING 87
SWIDTH 703 0
DWIDTH 17 0
BBX 17 12 0 0
BITMAP
650000000000053000
B800000000000AD000
B9000000000007F500
BA000000000002F900
AB000015000000BE00
9D00003E0000006F20
7F00003F3000001F50
4F30005F9000000E60
0E6000BFF200001F40
09D10AF7CD2001BD00
02EEEE501CE99EE300
003AB300008EE91000
ENDCHAR
STARTCHAR X
ENCODING 88
SWIDTH 534 0
DWIDTH 13 0
BBX 13 15 0 -2
BITMAP
00600000000000
00D60000005B60
006E100009F700
000C80009D3000
0002E31BC10000
00009EEB100000
00006FC1000000
0002EFD1000000
001CB5F9000000
009D105F500000
04F40008E20000
0C900000BC0000
4F1000001B5000
79000000000000
31000000000000
ENDCHAR
STARTCHAR Y
ENCODING 89
SWIDTH 403 0
DWIDTH 10 0
BBX 10 17 0 -1
BITMAP
3200000000
8900000072
5F200000F3
0DC00004F1
04FA000AD0
004EC32F80
0002CFFF30
000005EC00
000001F600
000005F100
00000AA000
00000E6000
00001F3000
00003F0000
00004F0000
00004F1000
0000040000
ENDCHAR
STARTCHAR Z
ENCODING 90
SWIDTH 571 0
DWIDTH 14 0
BBX 14 15 0 0
BITMAP
07BDCB82000000
8EA656BF700000
10000005F30000
00000000A80000
00000000890000
00000000B70000
00000005F60000
00048ADFFFFD30
004DCBEFC55400
000000CB100000
000004E1000000
00002E50000000
0000BC00002571
0000EC67AEFFE3
00007FFFEB8300
ENDCHAR
STARTCHAR bracketleft
ENCODING 91
SWIDTH 477 0
DWIDTH 11 0
BBX 13 20 0 -3
BITMAP
00000047ACC000
0015AEFC851000
29EFA610000000
7F710000000000
4F300000000000
0E700000000000
0AD00000000000
06F10000000000
03F30000000000
00D50000000000
00B70000000000
00890000000000
006B0000000000
004D0000000000
001E0000000000
000F1000000000
000E4000000000
000EC89ABCCC90
000CEB99888880
00020000000000
ENDCHAR
STARTCHAR backslash
ENCODING 92
SWIDTH 430 0
DWIDTH 10 0
BBX 10 13 0 0
BITMAP
A400000000
5E30000000
0BE2000000
01DD100000
004FC10000
0007FA0000
0000AF7000
00001CF400
000002EE20
0000005FB0
00000007F6
00000000DC
000000008A
ENDCHAR
STARTCHAR bracketright
ENCODING 93
SWIDTH 430 0
DWIDTH 10 0
BBX 10 23 0 -3
BITMAP
8DDB974000
058BDFFC00
0000016F60
0000000CB0
00000008E0
00000005F1
00000002F1
00000000E2
00000000D3
00000000C4
00000000B4
00000000A5
00000000A6
00000000A7
0000000098
00000000A9
00000000AA
00000000AA
00000000AB
00000000AC
03888888DD
06FFFFFFFD
0034444441
ENDCHAR
STARTCHAR asciicircum
ENCODING 94
SWIDTH 375 0
DWIDTH 9 0
BBX 7 6 1 12
BITMAP
00071000
003FA000
00AFF800
09F6DF50
9E402EA0
22000230
ENDCHAR
STARTCHAR underscore
ENCODING 95
SWIDTH 656 0
DWIDTH 16 0
BBX 16 3 0 0
BITMAP
2764200000000000
17BEFFEDDCCCCCA1
000024689BCDEEF3
ENDCHAR
STARTCHAR grave
ENCODING 96
SWIDTH 172 0
DWIDTH 4 0
BBX 4 4 0 10
BITMAP
2200
4F70
06F7
0045
ENDCHAR
STARTCHAR a
ENCODING 97
SWIDTH 505 0
DWIDTH 12 0
BBX 12 12 0 0
BITMAP
0002CEA20000
000797CE5000
00000009F300
00000000BD00
000256414F60
02BFFDDFCFC0
1DC51003BFF2
6D1000000AF4
7A00000001D5
3E6000000043
07FEA9ABDFF5
0039CEFDA610
ENDCHAR
STARTCHAR b
ENCODING 98
SWIDTH 497 0
DWIDTH 12 0
BBX 12 16 0 0
BITMAP
020000000000
AA0000000000
AC0000000000
8E0000000000
5F0000000000
3F2000000000
1F4000000000
0D6010000000
0AEEFFD82000
09F9458DF800
08F000006E90
06D0000005F3
04F1000000D7
01FA000004F6
007FD856AFD1
0007DFFEB810
ENDCHAR
STARTCHAR c
ENCODING 99
SWIDTH 449 0
DWIDTH 11 0
BBX 10 11 0 0
BITMAP
0007DFD700
01CC525E70
09C1000670
2F40000120
6E00000000
8C00000000
7D00000000
4F30000000
0DD2000000
03EFA75555
0018CEFFD9
ENDCHAR
STARTCHAR d
ENCODING 100
SWIDTH 524 0
DWIDTH 13 0
BBX 12 17 0 0
BITMAP
00000001C100
00000001F900
00000000CF10
000000008F60
000000003F90
000000000EC0
005DEC600BF0
05FFDDFD4AF2
0DF5002BFEF4
4F8000007FF5
6F2000000CF6
8E0000000EF8
6F1000006FF9
3F500003EFFA
0DC0006ED2CC
04FCADFC206E
006DEB500000
ENDCHAR
STARTCHAR e
ENCODING 101
SWIDTH 515 0
DWIDTH 12 0
BBX 12 13 0 0
BITMAP
000046300000
003DECEB1000
03E8002E7000
0C900007B000
3F100007B000
6D00006F7000
8C456CF80000
7D7DB8200000
4F1000000000
0D7000000000
04F810000000
005EFB9889A3
00028CEFD930
ENDCHAR
STARTCHAR f
ENCODING 102
SWIDTH 376 0
DWIDTH 9 0
BBX 12 17 -1 0
BITMAP
000003BDB500
00004FC79FA0
0000CA0005F8
0003E1000049
000790000000
000A70000000
000B80000000
000CA0000000
000BC0000000
058DFBA87200
2DAAFECEC300
0000DB000000
00006F200000
00001EB00000
000007F50000
000001EE1000
0000004E3000
ENDCHAR
STARTCHAR g
ENCODING 103
SWIDTH 366 0
DWIDTH 9 0
BBX 13 22 -4 -12
BITMAP
00000003AD7000
0000006EA8F400
000004E4009B00
00000D70007F00
00004F10006F30
00007D00008F50
00008E0000BF60
00003F8229FF70
000007FFFECF80
00000037613F80
00000000000F90
00000000000C90
00000000000B90
000000000009A0
000000000008C0
091000000009B0
2F000000000AA0
0E700000000D80
06FA2000003F40
005EFA5101BE00
00018EFFDEF500
00000048AA5000
ENDCHAR
STARTCHAR h
ENCODING 104
SWIDTH 427 0
DWIDTH 10 0
BBX 11 17 -1 0
BITMAP
3A0000000000
3F2000000000
0E7000000000
0BB000000000
07F000000000
04F200000000
02F69CB60000
00EFFDEF8000
00DC2007F200
00B700009900
00A900004E00
009A00002F20
008C00001F40
007E00002F60
006F10003F50
005F20004F40
002D10003D10
ENDCHAR
STARTCHAR i
ENCODING 105
SWIDTH 174 0
DWIDTH 4 0
BBX 4 15 0 0
BITMAP
4200
9C00
0100
0000
0440
08A0
08B0
08C0
07E0
06F2
05F5
03F8
01F9
00DB
0089
ENDCHAR
STARTCHAR j
ENCODING 106
SWIDTH 200 0
DWIDTH 5 0
BBX 9 25 -3 -11
BITMAP
0003D10000
0001B30000
0000000000
0000000000
0000050000
00001F2000
00000E7000
00000CB000
00000AE000
000007F300
000004F600
000002F800
000000EB00
000000BD00
0000009F00
0000006F20
3000004F30
9800002F40
7E10001F50
2F80000F50
0AE2000F50
02EB100F40
003EC46F20
0002DFFD00
000006B400
ENDCHAR
STARTCHAR k
ENCODING 107
SWIDTH 403 0
DWIDTH 10 0
BBX 10 15 0 0
BITMAP
7000000000
E100000000
C500000000
9900000000
7D00009700
4F1009D200
1F305D2000
0E63D20000
0CFF400000
0AF9000000
09F6000000
09FD200000
09FDE82000
0BA06EFDA4
0A70018CB3
ENDCHAR
STARTCHAR l
ENCODING 108
SWIDTH 120 0
DWIDTH 3 0
BBX 3 15 0 -1
BITMAP
4B00
5F10
5F10
5F20
5F20
6F30
6F30
6F40
6F40
5F40
5F40
4F30
2F20
1E00
0100
ENDCHAR
STARTCHAR m
ENCODING 109
SWIDTH 750 0
DWIDTH 18 0
BBX 18 11 0 0
BITMAP
000000000000110000
11167500003BFFA100
5CDFEFD205EE87EB00
5FF501BD7FA1004F60
4F90001EFB00000AC0
3F500009F5000005F1
2F400004F5000002F4
1F500000E9000001F5
1F600000AD000002F5
0E70000027000003F3
0530000000000003D0
ENDCHAR
STARTCHAR n
ENCODING 110
SWIDTH 459 0
DWIDTH 11 0
BBX 11 11 0 0
BITMAP
0002AED70000
389FA7AF7000
5FF40008E200
5F900001E900
4F5000008E00
3F5000004F30
2F7000001F60
0EA000000E80
0BD000000D90
07F100000E70
00B200000D30
ENDCHAR
STARTCHAR o
ENCODING 111
SWIDTH 487 0
DWIDTH 12 0
BBX 11 10 0 0
BITMAP
0004ADFD7000
01AFB88DF900
0AD200019F40
3E2000000AB0
7A00000005E0
8A00000007E0
6E1000002EB0
1E900003DF40
05FC76AFF700
003AEFD93000
ENDCHAR
STARTCHAR p
ENCODING 112
SWIDTH 520 0
DWIDTH 13 0
BBX 12 18 0 -9
BITMAP
000014541000
004CFFFFF910
05FD73126DD1
1EB0000002D9
6F800000007E
8F921000007F
8FA8E83138EB
6FC1AFFFFFC2
3FE001454200
0FF100000000
0CF300000000
08F600000000
05F800000000
01FB00000000
00CD00000000
007F10000000
002F30000000
000510000000
ENDCHAR
STARTCHAR q
ENCODING 113
SWIDTH 412 0
DWIDTH 10 0
BBX 9 20 0 -8
BITMAP
0005BED700
009E647EA0
07E20007F0
1E600008E0
4E00000BC0
7A00000EB0
8900000FA0
6B00001F90
3F20002F70
0CD4117F60
02DFFFFF50
0015867F50
0000000F60
0000000D70
0000000D80
0000000C90
0000000CB0
0000000BB0
00000008C0
0000000270
ENDCHAR
STARTCHAR r
ENCODING 114
SWIDTH 346 0
DWIDTH 8 0
BBX 8 11 0 0
BITMAP
0028BC92
7CE99BEE
8F300002
7E000000
5E000000
3F200000
0F600000
0BB00000
07F10000
02F40000
00940000
ENDCHAR
STARTCHAR s
ENCODING 115
SWIDTH 514 0
DWIDTH 12 0
BBX 12 11 0 0
BITMAP
006BDDA30000
0BE9669E2000
2F40000A5000
0E6000092000
05FA53200000
0028BEFFD820
000000026CE3
0000000001F9
5D40000001F9
09FC75557DE3
0049CEFFEA30
ENDCHAR
STARTCHAR t
ENCODING 116
SWIDTH 328 0
DWIDTH 8 0
BBX 8 15 0 0
BITMAP
000E4000
000F7000
000E8000
000E9000
001F9000
9DEFFFE8
268ED652
000DA000
000DA000
000DB000
000DB000
000CC000
000AC000
0007D000
0002A000
ENDCHAR
STARTCHAR u
ENCODING 117
SWIDTH 501 0
DWIDTH 12 0
BBX 12 12 0 0
BITMAP
140000000000
7C0000001200
AA0000007C00
990000007F10
8B0000007F30
5E0000007F30
2F4000009F40
0BB00002EF60
04F6001CDDB0
009F96DC13F2
0007EE9100E7
000000000077
ENDCHAR
STARTCHAR v
ENCODING 118
SWIDTH 389 0
DWIDTH 9 0
BBX 9 9 0 0
BITMAP
9800000000
5F400009C0
0DA0003F40
06F100AD00
00E701F700
007E16F200
000DBBB000
0005FF4000
00009A0000
ENDCHAR
STARTCHAR w
ENCODING 119
SWIDTH 656 0
DWIDTH 16 0
BBX 16 10 0 0
BITMAP
0C00000000000000
6F00000000005300
AB00000440004E10
B9000009A0000C80
B900000AC00007D0
8C00000AE00005F1
3F20001DF30007F1
0BA001BFEC001DD0
02EB9EF73EECFF60
002BEC5002899500
ENDCHAR
STARTCHAR x
ENCODING 120
SWIDTH 448 0
DWIDTH 11 0
BBX 11 12 0 -2
BITMAP
200000000210
D90000008F60
4FA0001AE500
05FA03DC2000
005FDF900000
0008FD100000
001DDFB10000
00A607FC1000
05C0006FB000
09400007F800
000000008E00
000000000200
ENDCHAR
STARTCHAR y
ENCODING 121
SWIDTH 487 0
DWIDTH 12 0
BBX 12 23 0 -12
BITMAP
110000000500
850000000B20
980000000B60
8A0000000B90
6D0000000AB0
2F30000009D0
0C80000009F0
05E100003EF1
00AC2005EFF2
001AFCEE62E3
0000486100C4
0000000000C4
0000000000C4
0000000000D4
0000000000F3
0000000002F2
0000000004F0
0500000006D0
0D7000000A90
08F700001E50
00AFB200AD00
0006EFCEF400
000016993000
ENDCHAR
STARTCHAR z
ENCODING 122
SWIDTH 459 0
DWIDTH 11 0
BBX 11 13 0 0
BITMAP
002465200000
2CFEEEF50000
6E30007E0000
0000004F1000
0000006E0000
000000D90000
04689CFDB200
1CDDFF864000
0004F7000000
002EA0000000
00AF20002820
00EFC9ADFE30
004BEEDA6100
ENDCHAR
STARTCHAR braceleft
ENCODING 123
SWIDTH 393 0
DWIDTH 9 0
BBX 10 25 0 -3
BITMAP
0000046400
0007EECE80
01CE600390
0BE2000000
4F50000000
8D00000000
7900000000
4D00000000
0CA1000000
03EE710000
002BFE9100
0002EFF300
005ED9CA00
1CD5007F10
040000AE00
000007F500
00009E6000
001CC20000
00CB000000
05E1000000
06B0000000
04F2000000
00DD400242
004EFEEFC2
0001443100
ENDCHAR
STARTCHAR bar
ENCODING 124
SWIDTH 149 0
DWIDTH 4 0
BBX 4 16 0 0
BITMAP
4100
8600
6A00
3E00
0E30
0B50
0980
08A0
07B0
07D0
07E0
06E0
06E0
05E0
04F0
03D1
ENDCHAR
STARTCHAR braceright
ENCODING 125
SWIDTH 440 0
DWIDTH 11 0
BBX 10 29 0 -6
BITMAP
2798884000
BEB99CFA00
7E70004F60
0220000CB0
0000000DB0
0000008F40
000008F700
00008F6000
0008E30000
003F400000
004F200000
000EFEEE70
000ED98730
001F300000
000DB00000
0003E90000
00002D8000
000002E500
0000005E10
0000000B90
00000003F2
00000000B8
000000006C
000000004E
000000006D
C2000001D9
BD60002CE2
1BFDABFD30
0025663000
ENDCHAR
STARTCHAR asciitilde
ENCODING 126
SWIDTH 402 0
DWIDTH 10 0
BBX 9 4 0 9
BITMAP
09EB3007B0
5D14DBCC20
6800178100
0300000000
ENDCHAR
STARTCHAR nonbreakingspace
ENCODING 160
SWIDTH 375 0
DWIDTH 9 0
BBX 1 1 0 0
BITMAP
00
ENDCHAR
STARTCHAR exclamdown
ENCODING 161
SWIDTH 149 0
DWIDTH 4 0
BBX 4 16 0 0
BITMAP
5FB1
4ED1
0000
0000
0000
0C40
0E50
0E40
0F40
0F30
0F30
0F30
0F20
0F20
0F20
0F20
ENDCHAR
STARTCHAR cent
ENCODING 162
SWIDTH 449 0
DWIDTH 11 0
BBX 11 15 0 -2
BITMAP
000045000000
00004C000000
00028F720000
007EAFDE3000
06E40E598000
1E600D734000
6E000D800000
8C000D900000
8D000D900000
6F200C900000
1FC20C800000
07FEADB44500
005CFFFEC910
00000B600000
000004000000
ENDCHAR
STARTCHAR sterling
ENCODING 163
SWIDTH 758 0
DWIDTH 18 0
BBX 18 18 0 0
BITMAP
000000000000254100
00000000001AFFFE50
0000000000AD4128F3
0000000004E10000B8
000000000A60000035
000000001E10000000
000000008C00000000
00000027FECCCC4000
0005AEFFFFB88B4000
00078535F700000000
00000003D000000000
000000068000000000
0000000C4000000000
0000003E0000000000
022210C90000000000
8FFFFFFFEDD9200000
9FFFFFCABDED700000
1BFEA2000000000000
ENDCHAR
STARTCHAR currency
ENCODING 164
SWIDTH 618 0
DWIDTH 15 0
BBX 14 13 0 0
BITMAP
29100000000012
0BE3049DED64E7
01CFBFECBEFF70
001EE600017F30
004F30000007A0
008A00000001E0
008800000003E0
006B0000000AB0
001E5000007F40
001DF8224BF600
009E5ADEDAE600
01F50000004E50
00400000000310
ENDCHAR
STARTCHAR yen
ENCODING 165
SWIDTH 389 0
DWIDTH 9 0
BBX 10 19 0 -1
BITMAP
0C30000000
0BB00000B7
05F20007E1
00D6002E80
007A009E10
001E12F800
0009A8E100
0002FF8000
0000AE1000
00008C0000
6DEFFFC910
0001CB5500
0234DB3000
1EFFFFFB00
0012F82100
0002F60000
0003F50000
0005F40000
0001200000
ENDCHAR
STARTCHAR brokenbar
ENCODING 166
SWIDTH 117 0
DWIDTH 3 0
BBX 3 15 0 -1
BITMAP
3700
5F00
5F00
4F00
4E00
5D00
1500
6D00
7F00
7F00
6F00
5F10
3F10
1F00
0200
ENDCHAR
STARTCHAR section
ENCODING 167
SWIDTH 514 0
DWIDTH 12 0
BBX 13 16 0 0
BITMAP
0029CCB7200000
03EDA9AEF70000
09C000008F7000
07C00000048000
01DB5210000000
008FFFFEC93000
0BFA76545AF700
2F80000000AF10
1F700000008F10
07FA543348EB00
004BEFFFFFA100
000001226CE200
0200000001F900
0C91000001F900
02DE96557DE300
0017BDFFEA3000
ENDCHAR
STARTCHAR dieresis
ENCODING 168
SWIDTH 397 0
DWIDTH 10 0
BBX 7 3 1 10
BITMAP
07401820
4FE08FB0
19602A30
ENDCHAR
STARTCHAR copyright
ENCODING 169
SWIDTH 667 0
DWIDTH 16 0
BBX 16 15 0 -1
BITMAP
0000035541000000
0002CFEFFFA30000
002E810038EF8000
00C7004AA61AF800
06D007E78E807F40
0C603E2005B009C0
1F10A800005001F3
2F00D600000000B7
1F10E70000000089
0D70BB000000008A
08E34FA7789801D7
01DE428ACDB77EC1
002DFB5347BFE800
00007CFFEC951000
0000000100000000
ENDCHAR
STARTCHAR ordfeminine
ENCODING 170
SWIDTH 266 0
DWIDTH 6 0
BBX 6 7 0 5
BITMAP
006300
015960
0000A2
1AB9D7
74005A
740016
08CDC5
ENDCHAR
STARTCHAR guillemotleft
ENCODING 171
SWIDTH 755 0
DWIDTH 18 0
BBX 17 12 0 0
BITMAP
000000000000000220
000000000000019E60
0000000017A05EC300
00000004DC49F70000
0000019F84DC300000
00003DD38E70000000
0007E81BE300000000
02CD30BFA410000000
2DC1019EFFFDB84000
CFFC86412578ADFB00
16ACEFFFD600004500
00000134AE20000000
ENDCHAR
STARTCHAR logicalnot
ENCODING 172
SWIDTH 369 0
DWIDTH 9 0
BBX 9 4 0 6
BITMAP
0999999A20
2BAA99AF40
0000000E30
0000001E10
ENDCHAR
STARTCHAR hyphen_
ENCODING 173
SWIDTH 375 0
DWIDTH 9 0
BBX 9 3 0 5
BITMAP
04789AA600
6FFDCBCE10
2200000000
ENDCHAR
STARTCHAR registered
ENCODING 174
SWIDTH 708 0
DWIDTH 17 0
BBX 16 14 0 0
BITMAP
000039BCA7200000
0007E989CFFA1000
006D2000029FD200
02E58BCDC943DD10
08B7D53335DA2E80
0E5225C0009F15F1
1F1006F336EB00D6
1F1005FDCA500099
0F4003FC3000008A
0BB001F5E600009A
04F900D32C9106F4
008FC340009DCF60
0006EFC9BDFD9200
0000169A86200000
ENDCHAR
STARTCHAR macron
ENCODING 175
SWIDTH 287 0
DWIDTH 7 0
BBX 7 2 0 11
BITMAP
08CDEE90
2DA76890
ENDCHAR
STARTCHAR degree
ENCODING 176
SWIDTH 254 0
DWIDTH 6 0
BBX 6 7 0 7
BITMAP
018810
2B5A90
8100B0
800072
9000B1
7607B0
1AEB10
ENDCHAR
STARTCHAR plusminus
ENCODING 177
SWIDTH 459 0
DWIDTH 11 0
BBX 11 12 0 0
BITMAP
000060000000
0000E5000000
0000B9000000
00009D000000
0002AFA75410
5AEFFFFFFF90
58635F922200
00001F800000
00000D800000
00035EC99610
07EFECBBCC50
033100000000
ENDCHAR
STARTCHAR twosuperior
ENCODING 178
SWIDTH 296 0
DWIDTH 7 0
BBX 7 8 0 5
BITMAP
000A9000
00456500
00102900
00002A00
00005700
1100A100
BFB98000
3AA9BC10
ENDCHAR
STARTCHAR threesuperior
ENCODING 179
SWIDTH 204 0
DWIDTH 5 0
BBX 5 8 0 6
BITMAP
8BB400
400A00
016900
4FF200
015C20
400290
B501B0
08DD40
ENDCHAR
STARTCHAR acute
ENCODING 180
SWIDTH 180 0
DWIDTH 4 0
BBX 4 5 0 9
BITMAP
0001
007C
1BD2
9D20
5100
ENDCHAR
STARTCHAR mu
ENCODING 181
SWIDTH 501 0
DWIDTH 12 0
BBX 12 14 0 -2
BITMAP
030000000000
7C0000000100
AA0000006C00
990000007F10
9B0000007F20
9E0000007F30
9F4000008F40
9FA00002EF60
9FF4001BEEA0
9ADF75CF59F1
992AFFE503F6
A900131000A8
A90000000000
430000000000
ENDCHAR
STARTCHAR paragraph
ENCODING 182
SWIDTH 413 0
DWIDTH 10 0
BBX 10 14 0 -1
BITMAP
0002334200
03DFFFFF50
0DFFFFFFA0
5FFFFFCAC0
7FFFFFA6E0
7FFFFF95F0
18A9AF86F0
00000B76F1
00000B76F1
00000C76F1
00000C77F0
00000C86E0
00000A95C0
0000032250
ENDCHAR
STARTCHAR periodcentered
ENCODING 183
SWIDTH 212 0
DWIDTH 5 0
BBX 4 3 1 4
BITMAP
4E80
BFF1
4B50
ENDCHAR
STARTCHAR cedilla
ENCODING 184
SWIDTH 445 0
DWIDTH 11 0
BBX 7 9 3 -8
BITMAP
06000000
0F100000
0D300000
05EA6200
00159F60
010007C0
2D7007C0
04EDBD30
00154000
ENDCHAR
STARTCHAR onesuperior
ENCODING 185
SWIDTH 197 0
DWIDTH 5 0
BBX 6 10 -1 5
BITMAP
000021
000094
0000D3
0009F1
008EE0
08A6C0
3A07A0
000870
000950
000910
ENDCHAR
STARTCHAR ordmasculine
ENCODING 186
SWIDTH 254 0
DWIDTH 6 0
BBX 6 7 0 7
BITMAP
018810
2B5A90
8100B0
800072
9000B1
7607B0
1AEB10
ENDCHAR
STARTCHAR guillemotright
ENCODING 187
SWIDTH 659 0
DWIDTH 16 0
BBX 15 12 0 0
BITMAP
0000008500000000
4F8000AF81000000
08FC6106EFB51000
003AFEA646BFFD70
000027AEF7015FC0
00000008F6008F60
0000005FA019F700
000008F903CE4000
0003CE507FB10000
007FC21BF7000000
0AF800DC30000000
4D30005000000000
ENDCHAR
STARTCHAR onequarter
ENCODING 188
SWIDTH 626 0
DWIDTH 15 0
BBX 14 19 0 -1
BITMAP
00000002000000
00001009200000
0000C00C100000
0003C00D000000
001BA02B000000
00BF8068000000
0A7B60A5000000
680C40E1000000
000D23D0000000
000D0790B10000
000A0B64C00000
00000E29500006
00004D0A20007B
000079095003E7
0000B503D79EF5
0002F100498296
0006B000000098
000A6000000078
00091000000000
ENDCHAR
STARTCHAR onehalf
ENCODING 189
SWIDTH 566 0
DWIDTH 14 0
BBX 13 19 0 -1
BITMAP
00000000100000
00002006600000
0000C209500000
0000F10B200000
0005E00D000000
003ED04B000000
02DEB088000000
1D6A90C4000000
A80B71F1059100
200C55C02B6A00
000D3980250D10
000E1D40000A30
000A3E00000A30
00007B00000D10
0000B600003B00
0002F39820A300
0007C1FFFEE300
000B704A989DA0
000A1000000000
ENDCHAR
STARTCHAR threequarters
ENCODING 190
SWIDTH 566 0
DWIDTH 14 0
BBX 13 19 0 -2
BITMAP
00000001200000
00000006600000
02200008500000
6B9B100A300000
0006400D000000
037B102C000000
1BF90069000000
001880A5500000
5100A1E2D00000
5B10A4D4900000
04CD97A65000B0
00000A664004C0
00000E24902DA0
00003E00CCEC90
00007A001633A0
0000C5000002C0
0002F1000001B0
0006B000000000
00055000000000
ENDCHAR
STARTCHAR questiondown
ENCODING 191
SWIDTH 272 0
DWIDTH 7 0
BBX 7 18 0 0
BITMAP
1E500000
07200000
00000000
00000000
00000000
00000000
19972000
07AEF100
0008F000
004F9000
01DE1000
08F50000
1EB00000
5F400000
6F100000
2F400000
08E757B0
006BDB30
ENDCHAR
STARTCHAR Agrave
ENCODING 192
SWIDTH 562 0
DWIDTH 14 0
BBX 13 23 0 0
BITMAP
00000400000000
00000BD2000000
000001BE200000
00000007100000
00000231000000
0004DEEF910000
003E5004DB0000
00A600002E6000
01E1000007E000
05A0000000E400
08700000009A00
09500000005E00
0B400000002F20
0C300000000F50
0D400000000F70
5FFFFEDCBABF90
2D910012466CA0
0A7000000009C0
0A8000000008C0
0AB000000008D0
08D00000000AC0
05F10000000DB0
01D20000000E60
ENDCHAR
STARTCHAR Aacute
ENCODING 193
SWIDTH 562 0
DWIDTH 14 0
BBX 13 23 0 0
BITMAP
00000010000000
000006D0000000
0000AE40000000
0007E300000000
00042231000000
0004DEEF910000
003E5004DB0000
00A600002E6000
01E1000007E000
05A0000000E400
08700000009A00
09500000005E00
0B400000002F20
0C300000000F50
0D400000000F70
5FFFFEDCBABF90
2D910012466CA0
0A7000000009C0
0A8000000008C0
0AB000000008D0
08D00000000AC0
05F10000000DB0
01D20000000E60
ENDCHAR
STARTCHAR Acircumflex
ENCODING 194
SWIDTH 562 0
DWIDTH 14 0
BBX 13 24 0 0
BITMAP
00000440000000
00000BF3000000
00004FFD100000
0003EA9FB00000
003EA009F20000
00040231400000
0004DEEF910000
003E5004DB0000
00A600002E6000
01E1000007E000
05A0000000E400
08700000009A00
09500000005E00
0B400000002F20
0C300000000F50
0D400000000F70
5FFFFEDCBABF90
2D910012466CA0
0A7000000009C0
0A8000000008C0
0AB000000008D0
08D00000000AC0
05F10000000DB0
01D20000000E60
ENDCHAR
STARTCHAR Atilde
ENCODING 195
SWIDTH 562 0
DWIDTH 14 0
BBX 13 22 0 0
BITMAP
004DD7003D2000
00E52ADAE50000
00E00059400000
00300231000000
0004DEEF910000
003E5004DB0000
00A600002E6000
01E1000007E000
05A0000000E400
08700000009A00
09500000005E00
0B400000002F20
0C300000000F50
0D400000000F70
5FFFFEDCBABF90
2D910012466CA0
0A7000000009C0
0A8000000008C0
0AB000000008D0
08D00000000AC0
05F10000000DB0
01D20000000E60
ENDCHAR
STARTCHAR Adieresis
ENCODING 196
SWIDTH 562 0
DWIDTH 14 0
BBX 13 22 0 0
BITMAP
00018203700000
0009F90DF60000
0003A305910000
00000231000000
0004DEEF910000
003E5004DB0000
00A600002E6000
01E1000007E000
05A0000000E400
08700000009A00
09500000005E00
0B400000002F20
0C300000000F50
0D400000000F70
5FFFFEDCBABF90
2D910012466CA0
0A7000000009C0
0A8000000008C0
0AB000000008D0
08D00000000AC0
05F10000000DB0
01D20000000E60
ENDCHAR
STARTCHAR Aring
ENCODING 197
SWIDTH 562 0
DWIDTH 14 0
BBX 13 22 0 0
BITMAP
00003BD6000000
0000C11C200000
0001A00C200000
00008BD8000000
0004DEEF910000
003E5004DB0000
00A600002E5000
01E1000007D000
05A0000000E400
08700000009A00
09500000005E00
0B400000002F20
0C300000000F50
0D400000000F70
5FFFFEDCBABF90
2D910012466CA0
0A7000000009C0
0A8000000008C0
0AB000000008D0
08D00000000AC0
05F10000000DB0
01D20000000E60
ENDCHAR
STARTCHAR AE
ENCODING 198
SWIDTH 960 0
DWIDTH 23 0
BBX 23 19 0 0
BITMAP
000002310000000000000000
0004DEEF9100000000000000
003E5004DB00000000000000
00A600002E60000000000000
01E1000007E1DDDCCBBBB600
05A0000000E6FA8887766A10
08700000009CF30000000000
09500000005FF30000000000
0B400000002FF30000000000
0C300000000FF30001468500
0D400000000FFCBCEFFC8100
5FFFFEDCBABFF96432000000
2D910012466CE00000000000
0A7000000009D00000000000
0A8000000008D00000000000
0AB000000008D00000000000
08D00000000AD00000001100
05F10000000DFB9AACDFFF60
01D20000000E8BDEEEDB9500
ENDCHAR
STARTCHAR Ccedilla
ENCODING 199
SWIDTH 515 0
DWIDTH 12 0
BBX 12 24 0 -8
BITMAP
000000277100
00001AFFF600
0002DD51B500
002DA101B000
00B800001000
05B000000000
0C2000000000
3C0000000000
790000000000
890000000000
7A0000000000
5E0000000000
1F4000000000
0AC100002564
02ED99BEFFD4
002CFEB84100
000880000000
0006A0000000
0001CC840000
0000037CC000
00010001F400
0009C200E400
0000BEBC9000
000003520000
ENDCHAR
STARTCHAR Egrave
ENCODING 200
SWIDTH 524 0
DWIDTH 13 0
BBX 12 20 0 0
BITMAP
000022000000
00004F700000
000006F70000
000000450000
000000000000
1CCCBBBAAA40
3FA9998877B0
3F2000000000
3F2000000000
3F2000000000
3F2000136740
6FBABDFFD910
6F9764310000
5D0000000000
6C0000000000
7C0000000000
8C0000000000
7C0000000000
3FA889BCEFF4
05CEFFFECA50
ENDCHAR
STARTCHAR Eacute
ENCODING 201
SWIDTH 524 0
DWIDTH 13 0
BBX 12 20 0 0
BITMAP
000000010000
000002B70000
00003EA00000
0001E9000000
000060000000
1CCCBBBAAA40
3FA9998877B0
3F2000000000
3F2000000000
3F2000000000
3F2000136740
6FBABDFFD910
6F9764310000
5D0000000000
6C0000000000
7C0000000000
8C0000000000
7C0000000000
3FA889BCEFF4
05CEFFFECA50
ENDCHAR
STARTCHAR Ecircumflex
ENCODING 202
SWIDTH 524 0
DWIDTH 13 0
BBX 12 22 0 0
BITMAP
000001700000
000005F90000
00000CFF6000
0000AE6EF300
000BE303E800
000310002300
000000000000
1CCCBBBAAA40
3FA9998877B0
3F2000000000
3F2000000000
3F2000000000
3F2000136740
6FBABDFFD910
6F9764310000
5D0000000000
6C0000000000
7C0000000000
8C0000000000
7C0000000000
3FA889BCEFF4
05CEFFFECA50
ENDCHAR
STARTCHAR Edieresis
ENCODING 203
SWIDTH 524 0
DWIDTH 13 0
BBX 12 19 0 0
BITMAP
000381056000
000CF71FF300
000591078000
000000000000
1CCCBBBAAA40
3FA9998877B0
3F2000000000
3F2000000000
3F2000000000
3F2000136740
6FBABDFFD910
6F9764310000
5D0000000000
6C0000000000
7C0000000000
8C0000000000
7C0000000000
3FA889BCEFF4
05CEFFFECA50
ENDCHAR
STARTCHAR Igrave
ENCODING 204
SWIDTH 167 0
DWIDTH 4 0
BBX 5 19 -1 0
BITMAP
220000
3F8000
05F800
003500
000000
030000
096000
07C000
03F100
00E500
00A800
008B00
006E00
004F10
002F30
001F50
000E70
000C90
000780
ENDCHAR
STARTCHAR Iacute
ENCODING 205
SWIDTH 167 0
DWIDTH 4 0
BBX 5 19 -1 0
BITMAP
000100
005D10
09F400
6E3000
420000
030000
096000
07C000
03F100
00E500
00A800
008B00
006E00
004F10
002F30
001F50
000E70
000C90
000780
ENDCHAR
STARTCHAR Icircumflex
ENCODING 206
SWIDTH 167 0
DWIDTH 4 0
BBX 8 22 -2 0
BITMAP
00026000
0008F500
002EFF30
02DC7FE1
1DC106F5
04100031
00000000
00000000
00300000
00960000
007C0000
003F1000
000E5000
000A8000
0008B000
0006E000
0004F100
0002F300
0001F500
0000E700
0000C900
00007800
ENDCHAR
STARTCHAR Idieresis
ENCODING 207
SWIDTH 167 0
DWIDTH 4 0
BBX 7 17 -3 0
BITMAP
08302810
6FD0AF90
1A404A20
00030000
00096000
0007C000
0003F100
0000E500
0000A800
00008B00
00006E00
00004F10
00002F30
00001F50
00000E70
00000C90
00000780
ENDCHAR
STARTCHAR Eth
ENCODING 208
SWIDTH 741 0
DWIDTH 18 0
BBX 18 17 0 -1
BITMAP
000011000000000000
17BEFFFD9510000000
7D86547FDEE7100000
1000001F706DE60000
0000000D90009F8000
0000000AA00006F700
00000008C000008F30
0000006BEBCC700DA0
000008FEFA9AB006E0
00000100F3000004F1
00000000E6000005F1
00000000D800000AD0
00000000D800005F80
00000000940006FD10
000001EB6336CFC200
0000007EFFFFD70000
000000002431000000
ENDCHAR
STARTCHAR Ntilde
ENCODING 209
SWIDTH 609 0
DWIDTH 15 0
BBX 14 17 0 0
BITMAP
0001BE9201A800
0009A17EADA000
000A5002870000
00011000000000
1B200000000000
0F600000008800
0DA00000008F40
0DE00000003FB0
0DF40000000AF2
0EFB00000002F7
0FFF20000000AB
2F2BA00000006E
3F03F50000007F
4F108E300000AC
4F300BE60006F6
5F4001AFECEFA0
2E100005ABA500
ENDCHAR
STARTCHAR Ograve
ENCODING 210
SWIDTH 609 0
DWIDTH 15 0
BBX 14 18 0 0
BITMAP
00000040000000
000000BD200000
0000001BE20000
00000000710000
00000000000000
00000000000000
00058840000000
01CECDFE920000
0BB20027DF8000
4E10000007FB00
7A000000004F90
890000000006F3
7B0000000000CA
4F20000000007D
0DC0000000008D
04FC30000007F6
005EF95469EE70
00028DFFC95100
ENDCHAR
STARTCHAR Oacute
ENCODING 211
SWIDTH 609 0
DWIDTH 15 0
BBX 14 18 0 0
BITMAP
00000000100000
0000001A900000
000002DC100000
00000DA1000000
00000600000000
00000000000000
00058840000000
01CECDFE920000
0BB20027DF8000
4E10000007FB00
7A000000004F90
890000000006F3
7B0000000000CA
4F20000000007D
0DC0000000008D
04FC30000007F6
005EF95469EE70
00028DFFC95100
ENDCHAR
STARTCHAR Ocircumflex
ENCODING 212
SWIDTH 609 0
DWIDTH 15 0
BBX 14 19 0 0
BITMAP
00001700000000
00006F70000000
0001DFF5000000
001BD6EE200000
00CD204F700000
00310003200000
00000000000000
00058840000000
01CECDFE920000
0BB20027DF8000
4E10000007FB00
7A000000004F90
890000000006F3
7B0000000000CA
4F20000000007D
0DC0000000008D
04FC30000007F6
005EF95469EE70
00028DFFC95100
ENDCHAR
STARTCHAR Otilde
ENCODING 213
SWIDTH 609 0
DWIDTH 15 0
BBX 14 16 0 0
BITMAP
004DD7002C3000
00D61ADAE60000
00E00049500000
00300000000000
00058840000000
01CECDFE920000
0BB20027DF8000
4E10000007FB00
7A000000004F90
890000000006F3
7B0000000000CA
4F20000000007D
0DC0000000008D
04FC30000007F6
005EF95469EE70
00028DFFC95100
ENDCHAR
STARTCHAR Odieresis
ENCODING 214
SWIDTH 609 0
DWIDTH 15 0
BBX 14 17 0 0
BITMAP
00002810470000
0000AF90EF5000
00004A20691000
00000000000000
00000000000000
00058840000000
01CECDFE920000
0BB20027DF8000
4E10000007FB00
7A000000004F90
890000000006F3
7B0000000000CA
4F20000000007D
0DC0000000008D
04FC30000007F6
005EF95469EE70
00028DFFC95100
ENDCHAR
STARTCHAR multiply
ENCODING 215
SWIDTH 448 0
DWIDTH 11 0
BBX 8 7 1 1
BITMAP
58000191
5F903DC1
05FDF900
008FD000
02DBEA00
0CB04F60
07100300
ENDCHAR
STARTCHAR Oslash
ENCODING 216
SWIDTH 609 0
DWIDTH 15 0
BBX 14 19 0 -3
BITMAP
00000000150000
000000006B0000
00000000A90000
00000000D50000
00058743F10000
01CECDFFE20000
0BB2002EEF8000
4E10004F37FB00
7A0000AC004F90
890001E70006F3
7B0006F20000CA
4F200BC000007D
0DC12F7000008D
04FC9F100007F6
005EFD5469EE70
0006FDEFC95100
000BD000000000
000E5000000000
00040000000000
ENDCHAR
STARTCHAR Ugrave
ENCODING 217
SWIDTH 571 0
DWIDTH 14 0
BBX 14 18 0 0
BITMAP
00000220000000
000002F8000000
0000004E900000
00000003600000
00000000000000
09B00000018000
2F20000004F100
4C00000005F300
5C00000004F400
5C00000002F500
4E00000000D700
2F100000009A00
0E400000007E10
0A900000009F50
05E1000005FFB0
00DC10018FADF1
004FEAAED403F4
0004CFD7000031
ENDCHAR
STARTCHAR Uacute
ENCODING 218
SWIDTH 571 0
DWIDTH 14 0
BBX 14 18 0 0
BITMAP
00000001000000
0000004D200000
000007F6000000
00004F50000000
00003400000000
09B00000018000
2F20000004F100
4C00000005F300
5C00000004F400
5C00000002F500
4E00000000D700
2F100000009A00
0E400000007E10
0A900000009F50
05E1000005FFB0
00DC10018FADF1
004FEAAED403F4
0004CFD7000031
ENDCHAR
STARTCHAR Ucircumflex
ENCODING 219
SWIDTH 571 0
DWIDTH 14 0
BBX 14 22 0 0
BITMAP
00000044000000
000000CE300000
000004FFD10000
00003E99FB0000
0003EA009F1000
00004000040000
00000000000000
00000000000000
00000000000000
09B00000018000
2F20000004F100
4C00000005F300
5C00000004F400
5C00000002F500
4E00000000D700
2F100000009A00
0E400000007E10
0A900000009F50
05E1000005FFB0
00DC10018FADF1
004FEAAED403F4
0004CFD7000031
ENDCHAR
STARTCHAR Udieresis
ENCODING 220
SWIDTH 571 0
DWIDTH 14 0
BBX 14 17 0 0
BITMAP
00006600730000
0002FF26FD0000
00008701950000
00000000000000
09B00000018000
2F20000004F100
4C00000005F300
5C00000004F400
5C00000002F500
4E00000000D700
2F100000009A00
0E400000007E10
0A900000009F50
05E1000005FFB0
00DC10018FADF1
004FEAAED403F4
0004CFD7000031
ENDCHAR
STARTCHAR Yacute
ENCODING 221
SWIDTH 403 0
DWIDTH 10 0
BBX 10 22 0 -1
BITMAP
0000000100
0000007C00
00001BE300
00009D2000
0000510000
3200000000
8900000072
5F200000F3
0DC00004F1
04FA000AD0
004EC32F80
0002CFFF30
000005EC00
000001F600
000005F100
00000AA000
00000E6000
00001F3000
00003F0000
00004F0000
00004F1000
0000040000
ENDCHAR
STARTCHAR Thorn
ENCODING 222
SWIDTH 497 0
DWIDTH 12 0
BBX 11 19 1 -4
BITMAP
650000000000
CC0000000000
CB0000000000
CA0000000000
C90000000000
B80000000000
B80100000000
AEEFFD820000
9F9458DF8000
8F000006E900
8D0000005F30
7F1000000D70
6FA000004F60
5FFD856AFD10
5E39EFEB8100
4F0000000000
3F1000000000
2F1000000000
072000000000
ENDCHAR
STARTCHAR germandbls
ENCODING 223
SWIDTH 590 0
DWIDTH 14 0
BBX 14 21 0 -4
BITMAP
05A97400000000
1FFFEFD5000000
3F81006E700000
3F500006F00000
2F600005D00000
0F70003D600000
0D807DFA000000
0B90AFFC400000
09B0049EFA2000
06C000016DE400
04D00000006E40
02E000000006E1
01F000000000F8
00E100000000EA
00D20000003AF6
00E40AEEEFFB50
00E50365420000
01F60000000000
05F70000000000
05F80000000000
00010000000000
ENDCHAR
STARTCHAR agrave
ENCODING 224
SWIDTH 505 0
DWIDTH 12 0
BBX 12 16 0 0
BITMAP
000040000000
0000AD200000
00001BE20000
000000710000
0002CEA20000
000797CE5000
00000009F300
00000000BD00
000256414F60
02BFFDDFCFC0
1DC51003BFF2
6D1000000AF4
7A00000001D5
3E6000000043
07FEA9ABDFF5
0039CEFDA610
ENDCHAR
STARTCHAR aacute
ENCODING 225
SWIDTH 505 0
DWIDTH 12 0
BBX 12 16 0 0
BITMAP
000002C50000
00004E900000
0001F8000000
000150000000
0002CEA20000
000797CE5000
00000009F300
00000000BD00
000256414F60
02BFFDDFCFC0
1DC51003BFF2
6D1000000AF4
7A00000001D5
3E6000000043
07FEA9ABDFF5
0039CEFDA610
ENDCHAR
STARTCHAR acircumflex
ENCODING 226
SWIDTH 505 0
DWIDTH 12 0
BBX 12 18 0 0
BITMAP
000003600000
000008F50000
00002EFE3000
0002DC7FD100
001DC106F400
000410003100
0002CEA20000
000797CE5000
00000009F300
00000000BD00
000256414F60
02BFFDDFCFC0
1DC51003BFF2
6D1000000AF4
7A00000001D5
3E6000000043
07FEA9ABDFF5
0039CEFDA610
ENDCHAR
STARTCHAR atilde
ENCODING 227
SWIDTH 505 0
DWIDTH 12 0
BBX 12 17 0 0
BITMAP
007EC5005D00
03E23CCBE300
03B000692000
003000000000
000000000000
0002CEA20000
000797CE5000
00000009F300
00000000BD00
000256414F60
02BFFDDFCFC0
1DC51003BFF2
6D1000000AF4
7A00000001D5
3E6000000043
07FEA9ABDFF5
0039CEFDA610
ENDCHAR
STARTCHAR adieresis
ENCODING 228
SWIDTH 505 0
DWIDTH 12 0
BBX 12 16 0 0
BITMAP
000381056000
000CF61FF200
000591088000
000000000000
0002CEA20000
000797CE5000
00000009F300
00000000BD00
000256414F60
02BFFDDFCFC0
1DC51003BFF2
6D1000000AF4
7A00000001D5
3E6000000043
07FEA9ABDFF5
0039CEFDA610
ENDCHAR
STARTCHAR aring
ENCODING 229
SWIDTH 505 0
DWIDTH 12 0
BBX 12 16 0 0
BITMAP
000017920000
0000B55D0000
0002900B2000
0000B79B0000
0002CFD20000
000797CF5000
00000009F300
00000000BD00
000256414F60
02BFFDDFCFC0
1DC51003BFF2
6D1000000AF4
7A00000001D5
3E6000000043
07FEA9ABDFF5
0039CEFDA610
ENDCHAR
STARTCHAR ae
ENCODING 230
SWIDTH 881 0
DWIDTH 21 0
BBX 21 13 0 -1
BITMAP
0002CEA2000039CB500000
000797CE5007F958F60000
00000009F34F40008D0000
00000000BDC800003F0000
000256414FF200008E0000
02BFFDDFCFF0003BF50000
1DC51003BFF8CDFC400000
6D1000000AF56530000000
7A00000001E60000000000
3E600000007E2000000000
07FEA9ABDFFDE841001220
0039CEFDA6107EFFEFFD30
0000000000000157873000
ENDCHAR
STARTCHAR ccedilla
ENCODING 231
SWIDTH 449 0
DWIDTH 11 0
BBX 11 19 0 -8
BITMAP
000278720000
007EB9BE3000
06E400098000
1E6000034000
6F0000000000
8D0000000000
7D0000000000
5F2000000000
0DC200000000
04EFA7545500
001BEEFFD910
000970000000
0006B1000000
0000AEA71000
0000014BD100
00031001F400
0007D401F300
00008FED6000
000001200000
ENDCHAR
STARTCHAR egrave
ENCODING 232
SWIDTH 515 0
DWIDTH 12 0
BBX 12 17 0 0
BITMAP
000220000000
0003F8000000
00005F800000
000003500000
000046300000
003DECEB1000
03E8002E7000
0C900007B000
3F100007B000
6D00006F7000
8C456CF80000
7D7DB8200000
4F1000000000
0D7000000000
04F810000000
005EFB9889A3
00028CEFD930
ENDCHAR
STARTCHAR eacute
ENCODING 233
SWIDTH 515 0
DWIDTH 12 0
BBX 12 18 0 0
BITMAP
000000100000
000005D10000
00008F500000
0005E4000000
000330000000
000046300000
003DECEB1000
03E8002E7000
0C900007B000
3F100007B000
6D00006F7000
8C456CF80000
7D7DB8200000
4F1000000000
0D7000000000
04F810000000
005EFB9889A3
00028CEFD930
ENDCHAR
STARTCHAR ecircumflex
ENCODING 234
SWIDTH 515 0
DWIDTH 12 0
BBX 12 18 0 0
BITMAP
000002700000
000007F70000
00001DFF5000
0001CD6EE200
000CD204F600
000456303200
003DECEB1000
03E8002E7000
0C900007B000
3F100007B000
6D00006F7000
8C456CF80000
7D7DB8200000
4F1000000000
0D7000000000
04F810000000
005EFB9889A3
00028CEFD930
ENDCHAR
STARTCHAR edieresis
ENCODING 235
SWIDTH 515 0
DWIDTH 12 0
BBX 12 16 0 0
BITMAP
000740182000
004FE08FA000
0019503A3000
000046300000
003DECEB1000
03E8002E7000
0C900007B000
3F100007B000
6D00006F7000
8C456CF80000
7D7DB8200000
4F1000000000
0D7000000000
04F810000000
005EFB9889A3
00028CEFD930
ENDCHAR
STARTCHAR igrave
ENCODING 236
SWIDTH 174 0
DWIDTH 4 0
BBX 4 15 0 0
BITMAP
2100
6E50
07F6
0054
0440
08A0
08B0
08C0
07E0
06F2
05F5
03F8
01F9
00DB
0089
ENDCHAR
STARTCHAR iacute
ENCODING 237
SWIDTH 174 0
DWIDTH 4 0
BBX 5 15 -1 0
BITMAP
001A50
03DB00
1E9000
270000
004400
008A00
008B00
008C00
007E00
006F20
005F50
003F80
001F90
000DB0
000890
ENDCHAR
STARTCHAR icircumflex
ENCODING 238
SWIDTH 174 0
DWIDTH 4 0
BBX 7 18 -1 0
BITMAP
00260000
008F6000
01EFF400
1CC6FE10
DD206F50
41000320
00000000
00440000
008A0000
008B0000
008C0000
007E0000
006F2000
005F5000
003F8000
001F9000
000DB000
00089000
ENDCHAR
STARTCHAR idieresis
ENCODING 239
SWIDTH 174 0
DWIDTH 4 0
BBX 7 14 -2 0
BITMAP
0BC12D90
1FF24FD0
02200310
00044000
0008A000
0008B000
0008C000
0007E000
0006F200
0005F500
0003F800
0001F900
0000DB00
00008900
ENDCHAR
STARTCHAR eth
ENCODING 240
SWIDTH 407 0
DWIDTH 10 0
BBX 10 14 0 -1
BITMAP
18A7200000
6E9EF60041
01018F9BF8
0004AEFE81
000EE86F30
0002100BA0
007DFFDDF1
09E4015BF4
3F300000C6
6D000000B5
5F200003F3
0CD6326EC0
019EFFFC20
0001343000
ENDCHAR
STARTCHAR ntilde
ENCODING 241
SWIDTH 459 0
DWIDTH 11 0
BBX 11 15 0 0
BITMAP
07EC5005D000
2E33CCBE3000
3B0006930000
030000000000
0002AED70000
389FA7AF7000
5FF40008E200
5F900001E900
4F5000008E00
3F5000004F30
2F7000001F60
0EA000000E80
0BD000000D90
07F100000E70
00B200000D30
ENDCHAR
STARTCHAR ograve
ENCODING 242
SWIDTH 487 0
DWIDTH 12 0
BBX 11 14 0 0
BITMAP
000022000000
00003F800000
000005F80000
000000350000
0004ADFD7000
01AFB88DF900
0AD200019F40
3E2000000AB0
7A00000005E0
8A00000007E0
6E1000002EB0
1E900003DF40
05FC76AFF700
003AEFD93000
ENDCHAR
STARTCHAR oacute
ENCODING 243
SWIDTH 487 0
DWIDTH 12 0
BBX 11 14 0 0
BITMAP
000003C40000
00005F800000
0003F6000000
000250000000
0004ADFD7000
01AFB88DF900
0AD200019F40
3E2000000AB0
7A00000005E0
8A00000007E0
6E1000002EB0
1E900003DF40
05FC76AFF700
003AEFD93000
ENDCHAR
STARTCHAR ocircumflex
ENCODING 244
SWIDTH 487 0
DWIDTH 12 0
BBX 11 16 0 0
BITMAP
000006200000
00000ED10000
00007FFB0000
0006F7BF8000
006F701CD000
001300014000
0004ADFD7000
01AFB88DF900
0AD200019F40
3E2000000AB0
7A00000005E0
8A00000007E0
6E1000002EB0
1E900003DF40
05FC76AFF700
003AEFD93000
ENDCHAR
STARTCHAR otilde
ENCODING 245
SWIDTH 487 0
DWIDTH 12 0
BBX 11 13 0 0
BITMAP
005DD6003D10
01E42BDAE400
01D000593000
0034ADFD7000
01AFB88DF900
0AD200019F40
3E2000000AB0
7A00000005E0
8A00000007E0
6E1000002EB0
1E900003DF40
05FC76AFF700
003AEFD93000
ENDCHAR
STARTCHAR odieresis
ENCODING 246
SWIDTH 487 0
DWIDTH 12 0
BBX 11 13 0 0
BITMAP
000660073000
002FF26FD000
000870195000
0004ADFD7000
01AFB88DF900
0AD200019F40
3E2000000AB0
7A00000005E0
8A00000007E0
6E1000002EB0
1E900003DF40
05FC76AFF700
003AEFD93000
ENDCHAR
STARTCHAR divide
ENCODING 247
SWIDTH 335 0
DWIDTH 8 0
BBX 7 7 0 1
BITMAP
00079000
00027000
01456620
1EFDBDE0
02000000
00058000
00011000
ENDCHAR
STARTCHAR oslash
ENCODING 248
SWIDTH 487 0
DWIDTH 12 0
BBX 11 11 0 0
BITMAP
00000002E200
00039CEEE000
009FB8AFF800
0AD300CC9F40
3E2007F30AB0
7A003F8005E0
8A00CD1007E0
6E18F4002EB0
1EBF8003DF40
07FF76AFF700
08CAEFEA3000
ENDCHAR
STARTCHAR ugrave
ENCODING 249
SWIDTH 501 0
DWIDTH 12 0
BBX 12 17 0 0
BITMAP
000300000000
0009D3000000
0000AE300000
000006200000
000000000000
140000000000
7C0000001200
AA0000007C00
990000007F10
8B0000007F30
5E0000007F30
2F4000009F40
0BB00002EF60
04F6001CDDB0
009F96DC13F2
0007EE9100E7
000000000077
ENDCHAR
STARTCHAR uacute
ENCODING 250
SWIDTH 501 0
DWIDTH 12 0
BBX 12 16 0 0
BITMAP
000002C60000
00004EA00000
0001E8000000
000150000000
140000000000
7C0000001200
AA0000007C00
990000007F10
8B0000007F30
5E0000007F30
2F4000009F40
0BB00002EF60
04F6001CDDB0
009F96DC13F2
0007EE9100E7
000000000077
ENDCHAR
STARTCHAR ucircumflex
ENCODING 251
SWIDTH 501 0
DWIDTH 12 0
BBX 12 18 0 0
BITMAP
000003500000
000009F40000
00002EFE3000
0002DB7FD000
001EC107F400
000400004100
140000000000
7C0000001200
AA0000007C00
990000007F10
8B0000007F30
5E0000007F30
2F4000009F40
0BB00002EF60
04F6001CDDB0
009F96DC13F2
0007EE9100E7
000000000077
ENDCHAR
STARTCHAR udieresis
ENCODING 252
SWIDTH 501 0
DWIDTH 12 0
BBX 12 15 0 0
BITMAP
001820381000
008FB0CF7000
002A30591000
140000000000
7C0000001200
AA0000007C00
990000007F10
8B0000007F30
5E0000007F30
2F4000009F40
0BB00002EF60
04F6001CDDB0
009F96DC13F2
0007EE9100E7
000000000077
ENDCHAR
STARTCHAR yacute
ENCODING 253
SWIDTH 487 0
DWIDTH 12 0
BBX 12 29 0 -12
BITMAP
000000100000
000003D30000
00006F700000
0003F6000000
000240000000
000000000000
110000000500
850000000B20
980000000B60
8A0000000B90
6D0000000AB0
2F30000009D0
0C80000009F0
05E100003EF1
00AC2005EFF2
001AFCEE62E3
0000486100C4
0000000000C4
0000000000C4
0000000000D4
0000000000F3
0000000002F2
0000000004F0
0500000006D0
0D7000000A90
08F700001E50
00AFB200AD00
0006EFCEF400
000016993000
ENDCHAR
STARTCHAR thorn
ENCODING 254
SWIDTH 520 0
DWIDTH 13 0
BBX 12 18 0 -5
BITMAP
001000000000
0B6000000000
0E4000000000
0F2000000000
1F059CDDA500
1EDFD967CFB0
2FD4000006F7
2F700000009D
2F600000006F
3F83100002CD
4FFFFDBACFF5
4F569AAAA820
5F3000000000
5F3000000000
5F3000000000
4F3000000000
2F3000000000
072000000000
ENDCHAR
STARTCHAR ydieresis
ENCODING 255
SWIDTH 487 0
DWIDTH 12 0
BBX 12 26 0 -12
BITMAP
001830281000
007FC0BF8000
002A404A2000
110000000500
850000000B20
980000000B60
8A0000000B90
6D0000000AB0
2F30000009D0
0C80000009F0
05E100003EF1
00AC2005EFF2
001AFCEE62E3
0000486100C4
0000000000C4
0000000000C4
0000000000D4
0000000000F3
0000000002F2
0000000004F0
0500000006D0
0D7000000A90
08F700001E50
00AFB200AD00
0006EFCEF400
000016993000
ENDCHAR
STARTCHAR Amacron
ENCODING 256
SWIDTH 562 0
DWIDTH 14 0
BBX 13 21 0 0
BITMAP
0007CDEEA00000
001DB868900000
00000231000000
0004DEEF910000
003E5004DB0000
00A600002E6000
01E1000007E000
05A0000000E400
08700000009A00
09500000005E00
0B400000002F20
0C300000000F50
0D400000000F70
5FFFFEDCBABF90
2D910012466CA0
0A7000000009C0
0A8000000008C0
0AB000000008D0
08D00000000AC0
05F10000000DB0
01D20000000E60
ENDCHAR
STARTCHAR amacron
ENCODING 257
SWIDTH 505 0
DWIDTH 12 0
BBX 12 16 0 0
BITMAP
0009CDEE8000
003DA7688000
000000000000
000000000000
0002CEA20000
000797CE5000
00000009F300
00000000BD00
000256414F60
02BFFDDFCFC0
1DC51003BFF2
6D1000000AF4
7A00000001D5
3E6000000043
07FEA9ABDFF5
0039CEFDA610
ENDCHAR
STARTCHAR Abreve
ENCODING 258
SWIDTH 562 0
DWIDTH 14 0
BBX 13 22 0 0
BITMAP
00004501E00000
00001DBD800000
00000143000000
00000231000000
0004DEEF910000
003E5004DB0000
00A600002E6000
01E1000007E000
05A0000000E400
08700000009A00
09500000005E00
0B400000002F20
0C300000000F50
0D400000000F70
5FFFFEDCBABF90
2D910012466CA0
0A7000000009C0
0A8000000008C0
0AB000000008D0
08D00000000AC0
05F10000000DB0
01D20000000E60
ENDCHAR
STARTCHAR abreve
ENCODING 259
SWIDTH 505 0
DWIDTH 12 0
BBX 12 16 0 0
BITMAP
0006303C0000
0003DBD50000
000025200000
000000000000
0002CEA20000
000797CE5000
00000009F300
00000000BD00
000256414F60
02BFFDDFCFC0
1DC51003BFF2
6D1000000AF4
7A00000001D5
3E6000000043
07FEA9ABDFF5
0039CEFDA610
ENDCHAR
STARTCHAR Aogonek
ENCODING 260
SWIDTH 562 0
DWIDTH 14 0
BBX 14 23 0 -4
BITMAP
00000231000000
0004DEEF910000
003E5004DB0000
00A600002E6000
01E1000007E000
05A0000000E400
08700000009A00
09500000005E00
0B400000002F20
0C300000000F50
0D400000000F70
5FFFFEDCBABF90
2D910012466CA0
0A7000000009C0
0A8000000008C0
0AB000000008D0
08D00000000AC0
05F10000000EB0
01D2000004CF60
000000001E8000
000000004F0000
000000001DC862
00000000004561
ENDCHAR
STARTCHAR aogonek
ENCODING 261
SWIDTH 505 0
DWIDTH 12 0
BBX 12 15 0 -3
BITMAP
0002CEA20000
000797CE5000
00000009F300
00000000BD00
000256414F60
02BFFDDFCFC0
1DC51003BFF2
6D1000000AF4
7A00000001D5
3E6000000043
07FEA9ABDFF5
0039CEFFC610
0000005D0000
0000005E6100
00000006ACC2
ENDCHAR
STARTCHAR Cacute
ENCODING 262
SWIDTH 515 0
DWIDTH 12 0
BBX 12 20 0 0
BITMAP
000000001000
000000199000
000002DC1000
00000CB10000
000006377100
00001AFFF600
0002DD51B500
002DA101B000
00B800001000
05B000000000
0C2000000000
3C0000000000
790000000000
890000000000
7A0000000000
5E0000000000
1F4000000000
0AC100002564
02ED99BEFFD4
002BFEB84100
ENDCHAR
STARTCHAR cacute
ENCODING 263
SWIDTH 449 0
DWIDTH 11 0
BBX 10 17 0 0
BITMAP
0000000100
0000019900
00002DC100
0000CB1000
0000600000
0000000000
0007DFD700
01CC525E70
09C1000670
2F40000120
6E00000000
8C00000000
7D00000000
4F30000000
0DD2000000
03EFA75555
0018CEFFD9
ENDCHAR
STARTCHAR Ccircumflex
ENCODING 264
SWIDTH 515 0
DWIDTH 12 0
BBX 12 22 0 0
BITMAP
000002700000
000007F70000
00001DFF5000
0001CD6EE200
000CD204F600
000310003200
000000277100
00001AFFF600
0002DD51B500
002DA101B000
00B800001000
05B000000000
0C2000000000
3C0000000000
790000000000
890000000000
7A0000000000
5E0000000000
1F4000000000
0AC100002564
02ED99BEFFD4
002BFEB84100
ENDCHAR
STARTCHAR ccircumflex
ENCODING 265
SWIDTH 449 0
DWIDTH 11 0
BBX 10 18 0 0
BITMAP
0000071000
00004FA000
0000BFF800
0009E6DF40
009E402E90
0022000230
0000000000
0007DFD700
01CC525E70
09C1000670
2F40000120
6E00000000
8C00000000
7D00000000
4F30000000
0DD2000000
03EFA75555
0018CEFFD9
ENDCHAR
STARTCHAR Cdotaccent
ENCODING 266
SWIDTH 515 0
DWIDTH 12 0
BBX 12 20 0 0
BITMAP
000000100000
000005F20000
000002D20000
000000000000
000000277100
00001AFFF600
0002DD51B500
002DA101B000
00B800001000
05B000000000
0C2000000000
3C0000000000
790000000000
890000000000
7A0000000000
5E0000000000
1F4000000000
0AC100002564
02ED99BEFFD4
002BFEB84100
ENDCHAR
STARTCHAR cdotaccent
ENCODING 267
SWIDTH 449 0
DWIDTH 11 0
BBX 10 14 0 0
BITMAP
0000110000
00007E0000
00004D0000
0007DFD700
01CC525E70
09C1000670
2F40000120
6E00000000
8C00000000
7D00000000
4F30000000
0DD2000000
03EFA75555
0018CEFFD9
ENDCHAR
STARTCHAR Ccaron
ENCODING 268
SWIDTH 515 0
DWIDTH 12 0
BBX 12 20 0 0
BITMAP
000065001730
00002AC7DD20
0000009F9100
000000130000
000000277100
00001AFFF600
0002DD51B500
002DA101B000
00B800001000
05B000000000
0C2000000000
3C0000000000
790000000000
890000000000
7A0000000000
5E0000000000
1F4000000000
0AC100002564
02ED99BEFFD4
002BFEB84100
ENDCHAR
STARTCHAR ccaron
ENCODING 269
SWIDTH 449 0
DWIDTH 11 0
BBX 10 15 0 0
BITMAP
0056000650
0019D6CE40
00006FB200
0000030000
0007DFD700
01CC525E70
09C1000670
2F40000120
6E00000000
8C00000000
7D00000000
4F30000000
0DD2000000
03EFA75555
0018CEFFD9
ENDCHAR
STARTCHAR Dcaron
ENCODING 270
SWIDTH 741 0
DWIDTH 18 0
BBX 18 20 0 -1
BITMAP
000001730028100000
0000005D98FA000000
00000001DE60000000
000011002200000000
17BEFFFD9510000000
7D86547FDEE7100000
1000000E806DE60000
0000000B90009F8000
00000008A00006F700
00000006D000008F30
00000004F100000DA0
00000002F3000006E0
00000001F5000004F1
00000001F7000005F1
00000000F800000AD0
00000000E700005F80
00000000840006FD10
000001EB6336CFC200
0000007EFFFFD70000
000000002431000000
ENDCHAR
STARTCHAR dcaron
ENCODING 271
SWIDTH 582 0
DWIDTH 14 0
BBX 14 19 0 0
BITMAP
00000000000040
000000000000F1
00000001C100F5
00000001F900E7
00000000CF10C8
000000008F6088
000000003F9012
000000000EC000
005DEC600BF000
05FFDDFD4AF200
0DF5002BFEF400
4F8000007FF500
6F2000000CF600
8E0000000EF800
6F1000006FF900
3F500003EFFA00
0DC0006ED2CC00
04FCADFC206E00
006DEB50000000
ENDCHAR
STARTCHAR Dcroat
ENCODING 272
SWIDTH 741 0
DWIDTH 18 0
BBX 18 17 0 -1
BITMAP
000011000000000000
17BEFFFD9510000000
7D86547FDEE7100000
1000000E806DE60000
0000000B90009F8000
00000008A00006F700
00000006D000008F30
00000015F310000DA0
000009FFFFE10006E0
00000975F8510004F1
00000001F7000005F1
00000000F800000AD0
00000000E700005F80
00000000840006FD10
000001EB6336CFC200
0000007EFFFFD70000
000000002431000000
ENDCHAR
STARTCHAR dcroat
ENCODING 273
SWIDTH 524 0
DWIDTH 13 0
BBX 13 18 0 0
BITMAP
00000000400000
00000002F40000
00000001FC0000
00000001CF5200
000007EFFFFF80
000009866FC430
000000000FD000
003AC9400CF000
03EFFFFB2AF200
0CF8115CEDF400
3F9000009FF500
6F2000000CF600
8F0000000DF800
7F1000005FF900
3F500003EEFA00
0DB0006ED1CC00
04FCADFB106E00
006EEB50000000
ENDCHAR
STARTCHAR Emacron
ENCODING 274
SWIDTH 524 0
DWIDTH 13 0
BBX 12 18 0 0
BITMAP
0006CDEEB000
000DB8679100
000000000000
1CCCBBBAAA40
3FA9998877B0
3F2000000000
3F2000000000
3F2000000000
3F2000136740
6FBABDFFD910
6F9764310000
5D0000000000
6C0000000000
7C0000000000
8C0000000000
7C0000000000
3FA889BCEFF4
05CEFFFECA50
ENDCHAR
STARTCHAR emacron
ENCODING 275
SWIDTH 515 0
DWIDTH 12 0
BBX 12 16 0 0
BITMAP
0006CDEEB000
000DB8679100
000000000000
000046300000
003DECEB1000
03E8002E7000
0C900007B000
3F100007B000
6D00006F7000
8C456CF80000
7D7DB8200000
4F1000000000
0D7000000000
04F810000000
005EFB9889A3
00028CEFD930
ENDCHAR
STARTCHAR Ebreve
ENCODING 276
SWIDTH 524 0
DWIDTH 13 0
BBX 12 19 0 0
BITMAP
0001700C2000
0000CBCB0000
000004300000
000000000000
1CCCBBBAAA40
3FA9998877B0
3F2000000000
3F2000000000
3F2000000000
3F2000136740
6FBABDFFD910
6F9764310000
5D0000000000
6C0000000000
7C0000000000
8C0000000000
7C0000000000
3FA889BCEFF4
05CEFFFECA50
ENDCHAR
STARTCHAR ebreve
ENCODING 277
SWIDTH 515 0
DWIDTH 12 0
BBX 12 16 0 0
BITMAP
00005402C000
00002DBD6000
000001520000
000046300000
003DECEB1000
03E8002E7000
0C900007B000
3F100007B000
6D00006F7000
8C456CF80000
7D7DB8200000
4F1000000000
0D7000000000
04F810000000
005EFB9889A3
00028CEFD930
ENDCHAR
STARTCHAR Edotaccent
ENCODING 278
SWIDTH 524 0
DWIDTH 13 0
BBX 12 19 0 0
BITMAP
000002000000
00000D900000
000009800000
000000000000
1CCCBBBAAA40
3FA9998877B0
3F2000000000
3F2000000000
3F2000000000
3F2000136740
6FBABDFFD910
6F9764310000
5D0000000000
6C0000000000
7C0000000000
8C0000000000
7C0000000000
3FA889BCEFF4
05CEFFFECA50
ENDCHAR
STARTCHAR edotaccent
ENCODING 279
SWIDTH 515 0
DWIDTH 12 0
BBX 12 17 0 0
BITMAP
000011000000
00007E000000
00004D000000
000000000000
000046300000
003DECEB1000
03E8002E7000
0C900007B000
3F100007B000
6D00006F7000
8C456CF80000
7D7DB8200000
4F1000000000
0D7000000000
04F810000000
005EFB9889A3
00028CEFD930
ENDCHAR
STARTCHAR Eogonek
ENCODING 280
SWIDTH 524 0
DWIDTH 13 0
BBX 12 19 0 -4
BITMAP
1CCCBBBAAA40
3FA9998877B0
3F2000000000
3F2000000000
3F2000000000
3F2000136740
6FBABDFFD910
6F9764310000
5D0000000000
6C0000000000
7C0000000000
8C0000000000
7C0000000000
3FA889BCEFF4
05CEFFFFFB50
0000007D3000
000000B80000
0000006FA650
000000025640
ENDCHAR
STARTCHAR eogonek
ENCODING 281
SWIDTH 515 0
DWIDTH 12 0
BBX 12 17 0 -4
BITMAP
000046300000
003DECEB1000
03E8002E7000
0C900007B000
3F100007B000
6D00006F7000
8C456CF80000
7D7DB8200000
4F1000000000
0D7000000000
04F810000000
005EFB9889A3
00018BEFE930
000000CA1000
000000F40000
0000009E9740
000000024520
ENDCHAR
STARTCHAR Ecaron
ENCODING 282
SWIDTH 524 0
DWIDTH 13 0
BBX 12 19 0 0
BITMAP
000650006400
0002AC6DE300
000007FA1000
000000300000
1CCCBBBAAA40
3FA9998877B0
3F2000000000
3F2000000000
3F2000000000
3F2000136740
6FBABDFFD910
6F9764310000
5D0000000000
6C0000000000
7C0000000000
8C0000000000
7C0000000000
3FA889BCEFF4
05CEFFFECA50
ENDCHAR
STARTCHAR ecaron
ENCODING 283
SWIDTH 515 0
DWIDTH 12 0
BBX 12 17 0 0
BITMAP
000650017300
0003AC7DD200
000009F91000
000001300000
000046300000
003DECEB1000
03E8002E7000
0C900007B000
3F100007B000
6D00006F7000
8C456CF80000
7D7DB8200000
4F1000000000
0D7000000000
04F810000000
005EFB9889A3
00028CEFD930
ENDCHAR
STARTCHAR Gcircumflex
ENCODING 284
SWIDTH 571 0
DWIDTH 14 0
BBX 14 21 0 -2
BITMAP
00000000540000
00000000CE2000
00000005FFD100
0000004E99FA00
000003FA00AF10
00000140000400
00000000368400
0000017DFDDF50
00004DB5000220
0007E500000000
008E2000000000
05F30010000000
0C8000FCACDD40
2F200047777D90
3E000000000990
1F100000000C90
0AB10000018F90
02EE9889BEEF90
0028CCA7410C90
00000000000AE3
00000000000292
ENDCHAR
STARTCHAR gcircumflex
ENCODING 285
SWIDTH 366 0
DWIDTH 9 0
BBX 13 30 -4 -12
BITMAP
00000000710000
00000003FA0000
0000000AFF8000
0000009F6DF500
000009E402EA00
00000220002300
00000000000000
00000000000000
00000003AD7000
0000006EA8F400
000004E4009B00
00000D70007F00
00004F10006F30
00007D00008F50
00008E0000BF60
00003F8229FF70
000007FFFECF80
00000037613F80
00000000000F90
00000000000C90
00000000000B90
000000000009A0
000000000008C0
091000000009B0
2F000000000AA0
0E700000000D80
06FA2000003F40
005EFA5101BE00
00018EFFDEF500
00000048AA5000
ENDCHAR
STARTCHAR Gbreve
ENCODING 286
SWIDTH 571 0
DWIDTH 14 0
BBX 14 18 0 -2
BITMAP
00003500E00000
00001DBD900000
00000143000000
00000000368400
0000017DFDDF50
00004DB5000220
0007E500000000
008E2000000000
05F30010000000
0C8000FCACDD40
2F200047777D90
3E000000000990
1F100000000C90
0AB10000018F90
02EE9889BEEF90
0028CCA7410C90
00000000000AE3
00000000000292
ENDCHAR
STARTCHAR gbreve
ENCODING 287
SWIDTH 366 0
DWIDTH 9 0
BBX 13 25 -4 -12
BITMAP
00000080077000
0000007CBD2000
00000003410000
00000003AD7000
0000006EA8F400
000004E4009B00
00000D70007F00
00004F10006F30
00007D00008F50
00008E0000BF60
00003F8229FF70
000007FFFECF80
00000037613F80
00000000000F90
00000000000C90
00000000000B90
000000000009A0
000000000008C0
091000000009B0
2F000000000AA0
0E700000000D80
06FA2000003F40
005EFA5101BE00
00018EFFDEF500
00000048AA5000
ENDCHAR
STARTCHAR Gdotaccent
ENCODING 288
SWIDTH 571 0
DWIDTH 14 0
BBX 14 18 0 -2
BITMAP
00000001100000
00000006F10000
00000003D10000
00000000368400
0000017DFDDF50
00004DB5000220
0007E500000000
008E2000000000
05F30010000000
0C8000FCACDD40
2F200047777D90
3E000000000990
1F100000000C90
0AB10000018F90
02EE9889BEEF90
0028CCA7410C90
00000000000AE3
00000000000292
ENDCHAR
STARTCHAR gdotaccent
ENCODING 289
SWIDTH 366 0
DWIDTH 9 0
BBX 13 26 -4 -12
BITMAP
00000001100000
00000007E00000
00000004D00000
00000000000000
00000003AD7000
0000006EA8F400
000004E4009B00
00000D70007F00
00004F10006F30
00007D00008F50
00008E0000BF60
00003F8229FF70
000007FFFECF80
00000037613F80
00000000000F90
00000000000C90
00000000000B90
000000000009A0
000000000008C0
091000000009B0
2F000000000AA0
0E700000000D80
06FA2000003F40
005EFA5101BE00
00018EFFDEF500
00000048AA5000
ENDCHAR
STARTCHAR Gcommaaccent
ENCODING 290
SWIDTH 571 0
DWIDTH 14 0
BBX 14 21 0 -8
BITMAP
00000000368400
0000017DFDDF50
00004DB5000220
0007E500000000
008E2000000000
05F30010000000
0C8000FCACDD40
2F200047777D90
3E000000000990
1F100000000C90
0AB10000018F90
02EE9889BEEF90
0028CCA7410C90
00000000000AE3
00000000000292
00000072000000
000001F9000000
000000AA000000
000000BA000000
000002F6000000
00000180000000
ENDCHAR
STARTCHAR gcommaaccent
ENCODING 291
SWIDTH 366 0
DWIDTH 9 0
BBX 13 34 -4 -12
BITMAP
00000001200000
00000005B00000
00000005F00000
00000004F20000
00000002F30000
00000000D30000
00000000210000
00000000000000
00000000000000
00000000000000
00000000000000
00000000000000
00000003AD7000
0000006EA8F400
000004E4009B00
00000D70007F00
00004F10006F30
00007D00008F50
00008E0000BF60
00003F8229FF70
000007FFFECF80
00000037613F80
00000000000F90
00000000000C90
00000000000B90
000000000009A0
000000000008C0
091000000009B0
2F000000000AA0
0E700000000D80
06FA2000003F40
005EFA5101BE00
00018EFFDEF500
00000048AA5000
ENDCHAR
STARTCHAR Hcircumflex
ENCODING 292
SWIDTH 524 0
DWIDTH 13 0
BBX 12 23 0 0
BITMAP
000001700000
000006F70000
00001DFF5000
0001BD6EE200
000CD204F600
000310003200
000000000020
1600000001E2
2D00000002F0
1F00000002F0
1F20000002F0
0F30000003F1
0D50000003F1
0C7000005CF1
0B90005DFCF2
0AB17DF922F2
0CFFE81001F3
6EF7100000F4
06F2000000E5
02F2000000D7
01F3000000C8
00E3000000AB
00810000005C
ENDCHAR
STARTCHAR hcircumflex
ENCODING 293
SWIDTH 427 0
DWIDTH 10 0
BBX 11 20 -1 0
BITMAP
000000710000
000003FA0000
00000BFF8000
3A009E6DF400
3F29E402EA00
0E7220002300
0BB000000000
07F000000000
04F200000000
02F69CB60000
00EFFDEF8000
00DC2007F200
00B700009900
00A900004E00
009A00002F20
008C00001F40
007E00002F60
006F10003F50
005F20004F40
002D10003D10
ENDCHAR
STARTCHAR hbar
ENCODING 295
SWIDTH 427 0
DWIDTH 10 0
BBX 12 17 -2 0
BITMAP
03A000000000
03F200000000
00E700000000
03DC63000000
AFFFFF300000
655F23000000
002F69CB6000
000EFFDEF800
000DC2007F20
000B70000990
000A900004E0
0009A00002F2
0008C00001F4
0007E00002F6
0006F10003F5
0005F20004F4
0002D10003D1
ENDCHAR
STARTCHAR Itilde
ENCODING 296
SWIDTH 167 0
DWIDTH 4 0
BBX 9 17 -2 0
BITMAP
3CE7102C40
C719EAE700
D100495000
3030000000
0096000000
007C000000
003F100000
000E500000
000A800000
0008B00000
0006E00000
0004F10000
0002F30000
0001F50000
0000E70000
0000C90000
0000780000
ENDCHAR
STARTCHAR itilde
ENCODING 297
SWIDTH 174 0
DWIDTH 4 0
BBX 10 16 -2 0
BITMAP
0399200191
1E76E86D70
3D002AD600
0600000000
0000000000
0004400000
0008A00000
0008B00000
0008C00000
0007E00000
0006F20000
0005F50000
0003F80000
0001F90000
0000DB0000
0000890000
ENDCHAR
STARTCHAR imacron
ENCODING 299
SWIDTH 174 0
DWIDTH 4 0
BBX 7 15 -1 0
BITMAP
15677300
DFFEFF10
53000200
00000000
00440000
008A0000
008B0000
008C0000
007E0000
006F2000
005F5000
003F8000
001F9000
000DB000
00089000
ENDCHAR
STARTCHAR Ibreve
ENCODING 300
SWIDTH 167 0
DWIDTH 4 0
BBX 5 18 0 0
BITMAP
900860
8CBD10
034100
000000
300000
960000
7C0000
3F1000
0E5000
0A8000
08B000
06E000
04F100
02F300
01F500
00E700
00C900
007800
ENDCHAR
STARTCHAR ibreve
ENCODING 301
SWIDTH 174 0
DWIDTH 4 0
BBX 5 15 -1 0
BITMAP
210070
4B36C0
07CA20
000000
004400
008A00
008B00
008C00
007E00
006F20
005F50
003F80
001F90
000DB0
000890
ENDCHAR
STARTCHAR Iogonek
ENCODING 302
SWIDTH 167 0
DWIDTH 4 0
BBX 5 18 0 -4
BITMAP
300000
960000
7C0000
3F1000
0E5000
0A8000
08B000
06E000
04F100
02F300
01F500
00E700
00D900
1AE800
BB2000
F40000
AE9640
035630
ENDCHAR
STARTCHAR iogonek
ENCODING 303
SWIDTH 174 0
DWIDTH 4 0
BBX 6 19 -1 -4
BITMAP
042000
09C000
001000
000000
004400
008A00
008B00
008C00
007E00
006F20
005F50
003F80
001F90
000DB0
03BF90
1E8100
5E0000
2EB652
015771
ENDCHAR
STARTCHAR Idotaccent
ENCODING 304
SWIDTH 167 0
DWIDTH 4 0
BBX 5 18 -1 0
BITMAP
020000
3F4000
1D4000
000000
030000
096000
07C000
03F100
00E500
00A800
008B00
006E00
004F10
002F30
001F50
000E70
000C90
000780
ENDCHAR
STARTCHAR dotlessi
ENCODING 305
SWIDTH 174 0
DWIDTH 4 0
BBX 3 11 1 0
BITMAP
4400
8A00
8B00
8C00
7E00
6F20
5F50
3F80
1F90
0DB0
0890
ENDCHAR
STARTCHAR Jcircumflex
ENCODING 308
SWIDTH 439 0
DWIDTH 11 0
BBX 12 24 0 0
BITMAP
000000044000
0000000BF300
0000004FFD10
000003EA9FB0
00003EA009F2
000004000040
000000000000
000000046000
00000006C000
00000003F100
00000001F400
00000000E700
00000000C900
00000000AB00
000000008D00
150000006E00
6A0000004F10
5E0000003F20
0C7000003F20
02D300003F10
004D20005F00
0005E4008C00
00004EB6D700
000002AEB000
ENDCHAR
STARTCHAR jcircumflex
ENCODING 309
SWIDTH 200 0
DWIDTH 5 0
BBX 9 29 -3 -11
BITMAP
0000071000
00004FA000
0000BFF800
0009E6DF40
009E402EA0
0022000230
0000000000
0000000000
0000050000
00001F2000
00000E7000
00000CB000
00000AE000
000007F300
000004F600
000002F800
000000EB00
000000BD00
0000009F00
0000006F20
3000004F30
9800002F40
7E10001F50
2F80000F50
0AE2000F50
02EB100F40
003EC46F20
0002DFFD00
000006B400
ENDCHAR
STARTCHAR Kcommaaccent
ENCODING 310
SWIDTH 468 0
DWIDTH 11 0
BBX 11 22 0 -8
BITMAP
7600006D1000
7A0008F50000
6C007F600000
4D04F7000000
2F2E80000000
0FDA00000000
0DD100000000
0DF500000000
0DEF40000000
0D6BF6000000
0D708F910000
0B9003DD4000
09B00018FA10
05A000004D80
000000000000
000000000000
000018100000
00005F600000
00000D700000
00001E600000
00006F300000
000036000000
ENDCHAR
STARTCHAR kcommaaccent
ENCODING 311
SWIDTH 403 0
DWIDTH 10 0
BBX 10 23 0 -8
BITMAP
7000000000
E100000000
C500000000
9900000000
7D00009700
4F1009D200
1F305D2000
0E63D20000
0CFF400000
0AF9000000
09F6000000
09FD200000
09FDE82000
0BA06EFDA4
0A70018CB3
0000000000
0000000000
0000720000
0002F90000
0000AA0000
0000C90000
0003F60000
0001800000
ENDCHAR
STARTCHAR Lacute
ENCODING 313
SWIDTH 346 0
DWIDTH 8 0
BBX 8 19 0 -1
BITMAP
00000010
000004D1
00008F50
0005E400
00033000
06500000
0C700000
0E700000
2F500000
3F300000
5F100000
6E000000
7D000000
8C000000
8C000000
6E200000
1DEBA875
029DFFFB
00000100
ENDCHAR
STARTCHAR lacute
ENCODING 314
SWIDTH 120 0
DWIDTH 3 0
BBX 5 20 -1 -1
BITMAP
000100
003D30
06F700
4F5000
240000
04B000
05F100
05F100
05F200
05F200
06F300
06F300
06F400
06F400
05F400
05F400
04F300
02F200
01E000
001000
ENDCHAR
STARTCHAR Lcommaaccent
ENCODING 315
SWIDTH 346 0
DWIDTH 8 0
BBX 8 21 0 -8
BITMAP
06500000
0C700000
0E700000
2F500000
3F300000
5F100000
6E000000
7D000000
8C000000
8C000000
6E200000
1DEBA875
029DFFFB
00000100
00000000
00055000
000CE000
0005F000
0006E000
000DB000
00072000
ENDCHAR
STARTCHAR lcommaaccent
ENCODING 316
SWIDTH 120 0
DWIDTH 3 0
BBX 3 22 0 -8
BITMAP
4B00
5F10
5F10
5F20
5F20
6F30
6F30
6F40
6F40
5F40
5F40
4F30
2F20
1E00
0100
0000
2700
7F30
1F50
2F40
8E10
4500
ENDCHAR
STARTCHAR Lcaron
ENCODING 317
SWIDTH 346 0
DWIDTH 8 0
BBX 8 19 0 -1
BITMAP
00004000
0000D300
0000D700
0000C900
0000AA00
06506B00
0C700200
0E700000
2F500000
3F300000
5F100000
6E000000
7D000000
8C000000
8C000000
6E200000
1DEBA875
029DFFFB
00000100
ENDCHAR
STARTCHAR lcaron
ENCODING 318
SWIDTH 222 0
DWIDTH 5 0
BBX 5 19 0 -1
BITMAP
000310
000A70
0009B0
0008D0
4B07E0
5F13E0
5F1030
5F2000
5F2000
6F3000
6F3000
6F4000
6F4000
5F4000
5F4000
4F3000
2F2000
1E0000
010000
ENDCHAR
STARTCHAR Ldot
ENCODING 319
SWIDTH 346 0
DWIDTH 8 0
BBX 8 14 0 -1
BITMAP
06500000
0C700000
0E700000
2F500000
3F300000
5F100000
6E0AD300
7D3FF900
8C09A100
8C000000
6E200000
1DEBA875
029DFFFB
00000100
ENDCHAR
STARTCHAR ldot
ENCODING 320
SWIDTH 333 0
DWIDTH 8 0
BBX 7 15 0 -1
BITMAP
4B000000
5F100000
5F100000
5F200000
5F200000
6F300000
6F300000
6F405E60
6F40DFE0
5F405B40
5F400000
4F300000
2F200000
1E000000
01000000
ENDCHAR
STARTCHAR Lslash
ENCODING 321
SWIDTH 346 0
DWIDTH 8 0
BBX 9 13 0 0
BITMAP
0077000000
00B8000000
00E7000000
01F6000000
03F4000000
04F2100000
05FC800000
1AFE400000
9FE2000000
39E0000000
04F5000000
00BFFDCA80
0005ACCC80
ENDCHAR
STARTCHAR lslash
ENCODING 322
SWIDTH 120 0
DWIDTH 3 0
BBX 7 14 -2 0
BITMAP
001E1000
002F4000
002F4000
002F5000
002F5300
002FEE10
006FD610
19FF7000
8B4F7000
002F7000
001F7000
000F6000
000E4000
00071000
ENDCHAR
STARTCHAR Nacute
ENCODING 323
SWIDTH 609 0
DWIDTH 15 0
BBX 14 18 0 0
BITMAP
00000000100000
0000001A900000
000002DC100000
00000DA1000000
00000600000000
1B200000000000
0F600000008800
0DA00000008F40
0DE00000003FB0
0DF40000000AF2
0EFB00000002F7
0FFF20000000AB
2F2BA00000006E
3F03F50000007F
4F108E300000AC
4F300BE60006F6
5F4001AFECEFA0
2E100005ABA500
ENDCHAR
STARTCHAR nacute
ENCODING 324
SWIDTH 459 0
DWIDTH 11 0
BBX 11 17 0 0
BITMAP
000000100000
00001A800000
0003EB100000
000EA0000000
000600000000
000000000000
0002AED70000
389FA7AF7000
5FF40008E200
5F900001E900
4F5000008E00
3F5000004F30
2F7000001F60
0EA000000E80
0BD000000D90
07F100000E70
00B200000D30
ENDCHAR
STARTCHAR Ncommaaccent
ENCODING 325
SWIDTH 609 0
DWIDTH 15 0
BBX 14 21 0 -8
BITMAP
1B200000000000
0F600000008800
0DA00000008F40
0DE00000003FB0
0DF40000000AF2
0EFB00000002F7
0FFF20000000AB
2F2BA00000006E
3F03F50000007F
4F108E300000AC
4F300BE60006F6
5F4001AFECEFA0
2E100005ABA500
00000000000000
00000000000000
00000036000000
0000009F100000
0000003F200000
0000004F200000
000000AD000000
00000053000000
ENDCHAR
STARTCHAR ncommaaccent
ENCODING 326
SWIDTH 459 0
DWIDTH 11 0
BBX 11 19 0 -8
BITMAP
0002AED70000
389FA7AF7000
5FF40008E200
5F900001E900
4F5000008E00
3F5000004F30
2F7000001F60
0EA000000E80
0BD000000D90
07F100000E70
00B200000D30
000000000000
000000000000
000027000000
00007F400000
00000F500000
00001F400000
00008F100000
000045000000
ENDCHAR
STARTCHAR Ncaron
ENCODING 327
SWIDTH 609 0
DWIDTH 15 0
BBX 14 19 0 0
BITMAP
00006500064000
000029D6DE3000
0000007FB10000
00000003000000
00000000000000
00000000000000
1B200000000000
0F600000008800
0DA00000008F40
0DE00000003FB0
0DF40000000AF2
0EFB00000002F7
0FFF20000000AB
2F2BA00000006E
3F03F50000007F
4F108E300000AC
4F300BE60006F6
5F4001AFECEFA0
2E100005ABA500
ENDCHAR
STARTCHAR ncaron
ENCODING 328
SWIDTH 459 0
DWIDTH 11 0
BBX 11 15 0 0
BITMAP
004610056000
0018D7BF5000
00004FC30000
000003000000
0002AED70000
389FA7AF7000
5FF40008E200
5F900001E900
4F5000008E00
3F5000004F30
2F7000001F60
0EA000000E80
0BD000000D90
07F100000E70
00B200000D30
ENDCHAR
STARTCHAR napostrophe
ENCODING 329
SWIDTH 459 0
DWIDTH 11 0
BBX 11 17 0 0
BITMAP
006400000000
00EC00000000
008D00000000
009C00000000
00F800000000
008100000000
0002AED70000
389FA7AF7000
5FF40008E200
5F900001E900
4F5000008E00
3F5000004F30
2F7000001F60
0EA000000E80
0BD000000D90
07F100000E70
00B200000D30
ENDCHAR
STARTCHAR Omacron
ENCODING 332
SWIDTH 609 0
DWIDTH 15 0
BBX 14 17 0 0
BITMAP
00003BDEEC2000
0000AC96793000
00000000000000
00000000000000
00000000000000
00058840000000
01CECDFE920000
0BB20027DF8000
4E10000007FB00
7A000000004F90
890000000006F3
7B0000000000CA
4F20000000007D
0DC0000000008D
04FC30000007F6
005EF95469EE70
00028DFFC95100
ENDCHAR
STARTCHAR omacron
ENCODING 333
SWIDTH 487 0
DWIDTH 12 0
BBX 11 13 0 0
BITMAP
0008CDEE8000
003DA7688000
000000000000
0004ADFD7000
01AFB88DF900
0AD200019F40
3E2000000AB0
7A00000005E0
8A00000007E0
6E1000002EB0
1E900003DF40
05FC76AFF700
003AEFD93000
ENDCHAR
STARTCHAR Obreve
ENCODING 334
SWIDTH 609 0
DWIDTH 15 0
BBX 14 16 0 0
BITMAP
00000800870000
000007CBD20000
00000034100000
00000000000000
00058840000000
01CECDFE920000
0BB20027DF8000
4E10000007FB00
7A000000004F90
890000000006F3
7B0000000000CA
4F20000000007D
0DC0000000008D
04FC30000007F6
005EF95469EE70
00028DFFC95100
ENDCHAR
STARTCHAR obreve
ENCODING 335
SWIDTH 487 0
DWIDTH 12 0
BBX 11 14 0 0
BITMAP
001800B30000
000BBCB00000
000044000000
000000000000
0004ADFD7000
01AFB88DF900
0AD200019F40
3E2000000AB0
7A00000005E0
8A00000007E0
6E1000002EB0
1E900003DF40
05FC76AFF700
003AEFD93000
ENDCHAR
STARTCHAR Ohungarumlaut
ENCODING 336
SWIDTH 609 0
DWIDTH 15 0
BBX 14 18 0 0
BITMAP
00000160010000
00002DB2B90000
0000AB1DC10000
0000511A100000
00000000000000
00000000000000
00058840000000
01CECDFE920000
0BB20027DF8000
4E10000007FB00
7A000000004F90
890000000006F3
7B0000000000CA
4F20000000007D
0DC0000000008D
04FC30000007F6
005EF95469EE70
00028DFFC95100
ENDCHAR
STARTCHAR ohungarumlaut
ENCODING 337
SWIDTH 487 0
DWIDTH 12 0
BBX 11 14 0 0
BITMAP
000043010000
0007F56E2000
002F55F60000
001406500000
0004ADFD7000
01AFB88DF900
0AD200019F40
3E2000000AB0
7A00000005E0
8A00000007E0
6E1000002EB0
1E900003DF40
05FC76AFF700
003AEFD93000
ENDCHAR
STARTCHAR OE
ENCODING 338
SWIDTH 848 0
DWIDTH 20 0
BBX 20 12 0 0
BITMAP
0006A950025544433320
02CEBCFD3CECBBBBAAB6
0CB1003DED9000000000
4E100003FF9000000000
7A000000AF9000002340
890000004FD9ABDEDA50
7B0000001F9432100000
3F2000001F4000000000
0CC100003F3000000000
03FC30008F3000000000
004EFA67FF8334567887
00017BED94BDEFFEDC94
ENDCHAR
STARTCHAR oe
ENCODING 339
SWIDTH 875 0
DWIDTH 21 0
BBX 21 13 0 -1
BITMAP
0000000000001685100000
000000000006EC9DC10000
00039CEC605F5001D80000
009FB88EF8D700007B0000
0AD300019FE000008B0000
3E2000000BC00019F50000
7A00000009E679EE500000
8A00000009E5A961000000
6E1000002EF10000000000
1E900003DFE80000000000
05FC66AFF73E9300000000
003AEFEA3004DFDBABCC30
00000000000006ACCA7100
ENDCHAR
STARTCHAR Racute
ENCODING 340
SWIDTH 579 0
DWIDTH 14 0
BBX 15 20 -1 -1
BITMAP
000000002C500000
00000005F9000000
0000002F70000000
0000001500000000
018BDEFED9400000
0CD866679CFC3000
3E100000004DD100
060080000001D700
0001F1000002E800
0001F300038EE300
0000FA9BEFE92000
0000DFFB85100000
0000AF4000000000
00008FE200000000
00005CAD10000000
00002F1AC2000000
00000D309D300000
0000096007F70000
00000440005EC300
000000000002AE20
ENDCHAR
STARTCHAR racute
ENCODING 341
SWIDTH 346 0
DWIDTH 8 0
BBX 8 16 0 0
BITMAP
00003C40
0005F800
002F7000
00250000
00000000
0028BC92
7CE99BEE
8F300002
7E000000
5E000000
3F200000
0F600000
0BB00000
07F10000
02F40000
00940000
ENDCHAR
STARTCHAR Rcommaaccent
ENCODING 342
SWIDTH 579 0
DWIDTH 14 0
BBX 15 23 -1 -8
BITMAP
018BDEFED9400000
0CD866679CFC3000
3E100000004DD100
060080000001D700
0001F1000002E800
0001F300038EE300
0000FA9BEFE92000
0000DFFB85100000
0000AF4000000000
00008FE200000000
00005CAD10000000
00002F1AC2000000
00000D309D300000
0000096007F70000
00000440005EC300
000000000002AE20
0000000000000000
0000000540000000
0000000DC0000000
00000007E0000000
00000008D0000000
0000000E90000000
0000000710000000
ENDCHAR
STARTCHAR rcommaaccent
ENCODING 343
SWIDTH 346 0
DWIDTH 8 0
BBX 8 19 0 -8
BITMAP
0028BC92
7CE99BEE
8F300002
7E000000
5E000000
3F200000
0F600000
0BB00000
07F10000
02F40000
00940000
00000000
00000000
00055000
000CE000
0005F000
0006E000
000DB000
00072000
ENDCHAR
STARTCHAR Rcaron
ENCODING 344
SWIDTH 579 0
DWIDTH 14 0
BBX 15 21 -1 -1
BITMAP
0000173002810000
000005D98FA00000
0000001DE6000000
0000000220000000
0000000000000000
018BDEFED9400000
0CD866679CFC3000
3E100000004DD100
060080000001D700
0001F1000002E800
0001F300038EE300
0000FA9BEFE92000
0000DFFB85100000
0000AF4000000000
00008FE200000000
00005CAD10000000
00002F1AC2000000
00000D309D300000
0000096007F70000
00000440005EC300
000000000002AE20
ENDCHAR
STARTCHAR rcaron
ENCODING 345
SWIDTH 346 0
DWIDTH 8 0
BBX 8 15 0 0
BITMAP
06500173
02AC7DD2
0008FA10
00003000
0028BC92
7CE99BEE
8F300002
7E000000
5E000000
3F200000
0F600000
0BB00000
07F10000
02F40000
00940000
ENDCHAR
STARTCHAR Sacute
ENCODING 346
SWIDTH 627 0
DWIDTH 15 0
BBX 15 21 0 -1
BITMAP
0000000010000000
00000003D3000000
0000006F70000000
000004F500000000
0000024000000000
0000014663000000
00008EDBBDFA1000
0009B200005DD000
000C500000014000
000A900000000000
0002E91000000000
00002BE710000000
0000005DE8100000
000000006DE80000
17000000017EC200
7D0000000001AD10
4F30000000002F50
08D3000000003F50
006EB7543347DC00
00005BEFFFFC8100
0000000122100000
ENDCHAR
STARTCHAR sacute
ENCODING 347
SWIDTH 514 0
DWIDTH 12 0
BBX 12 16 0 0
BITMAP
0000002C6000
000004EA0000
00001E800000
000015000000
000000000000
006BDDA30000
0BE9669E2000
2F40000A5000
0E6000092000
05FA53200000
0028BEFFD820
000000026CE3
0000000001F9
5D40000001F9
09FC75557DE3
0049CEFFEA30
ENDCHAR
STARTCHAR Scircumflex
ENCODING 348
SWIDTH 627 0
DWIDTH 15 0
BBX 15 23 0 -1
BITMAP
0000000720000000
0000001FC0000000
0000009FFA000000
000007F6CF600000
00007F601DC00000
0000230001400000
0000000000000000
0000014663000000
00008EDBBDFA1000
0009B200005DD000
000C500000014000
000A900000000000
0002E91000000000
00002BE710000000
0000005DE8100000
000000006DE80000
17000000017EC200
7D0000000001AD10
4F30000000002F50
08D3000000003F50
006EB7543347DC00
00005BEFFFFC8100
0000000122100000
ENDCHAR
STARTCHAR scircumflex
ENCODING 349
SWIDTH 514 0
DWIDTH 12 0
BBX 12 18 0 0
BITMAP
000002700000
000007F60000
00001DFF4000
0001CD6FE100
000DD205F600
000310003200
000000000000
006BDDA30000
0BE9669E2000
2F40000A5000
0E6000092000
05FA53200000
0028BEFFD820
000000026CE3
0000000001F9
5D40000001F9
09FC75557DE3
0049CEFFEA30
ENDCHAR
STARTCHAR Scedilla
ENCODING 350
SWIDTH 627 0
DWIDTH 15 0
BBX 15 23 0 -8
BITMAP
0000014663000000
00008EDBBDFA1000
0009B200005DD000
000C500000014000
000A900000000000
0002E91000000000
00002BE710000000
0000005DE8100000
000000006DE80000
17000000017EC200
7D0000000001AD10
4F30000000002F50
08D3000000003F50
006EB7543347DC00
00007EEFFFFC8100
00004D0122100000
00002E1000000000
000008E961000000
00000026AE300000
000010000B900000
00004E500A900000
000006FCBC200000
0000002530000000
ENDCHAR
STARTCHAR scedilla
ENCODING 351
SWIDTH 514 0
DWIDTH 12 0
BBX 12 19 0 -8
BITMAP
006BDDA30000
0BE9669E2000
2F40000A5000
0E6000092000
05FA53200000
0028BEFFD820
000000026CE3
0000000001F9
6D40000001F9
09FC75557DE3
004CEEFFEA30
000880000000
0007A0000000
0001CC840000
0000037CC000
00010001F400
0009B200F400
0000BEBC9000
000003520000
ENDCHAR
STARTCHAR Scaron
ENCODING 352
SWIDTH 627 0
DWIDTH 15 0
BBX 15 20 0 -1
BITMAP
0000461005600000
000018D7BF600000
0000004FC3000000
0000000300000000
0000014663000000
00008EDBBDFA1000
0009B200005DD000
000C500000014000
000A900000000000
0002E91000000000
00002BE710000000
0000005DE8100000
000000006DE80000
17000000017EC200
7D0000000001AD10
4F30000000002F50
08D3000000003F50
006EB7543347DC00
00005BEFFFFC8100
0000000122100000
ENDCHAR
STARTCHAR scaron
ENCODING 353
SWIDTH 514 0
DWIDTH 12 0
BBX 12 15 0 0
BITMAP
000650017300
0003AC7DD200
000009F91000
000001300000
006BDDA30000
0BE9669E2000
2F40000A5000
0E6000092000
05FA53200000
0028BEFFD820
000000026CE3
0000000001F9
5D40000001F9
09FC75557DE3
0049CEFFEA30
ENDCHAR
STARTCHAR Tcommaaccent
ENCODING 354
SWIDTH 581 0
DWIDTH 14 0
BBX 16 22 0 -7
BITMAP
5554443220000000
7BDFFFFFFFEDB951
0000234BC4469DFD
00000008B0000012
00000007C0000000
00000006D0000000
00000004F0000000
00000003F2000000
00000001F4000000
00000000F6000000
00000000D9000000
00000000BC000000
000000009E000000
000000006F600000
000000001DB00000
0000000000000000
0000000027000000
000000007F400000
000000000F500000
000000002F400000
000000008E100000
0000000045000000
ENDCHAR
STARTCHAR tcommaaccent
ENCODING 355
SWIDTH 328 0
DWIDTH 8 0
BBX 8 23 0 -8
BITMAP
000E4000
000F7000
000E8000
000E9000
001F9000
9DEFFFE8
268ED652
000DA000
000DA000
000DB000
000DB000
000CC000
000AC000
0007D000
0002A000
00000000
00000000
00063000
000FA000
0009C000
000AB000
001F7000
00081000
ENDCHAR
STARTCHAR Tcaron
ENCODING 356
SWIDTH 581 0
DWIDTH 14 0
BBX 16 19 0 0
BITMAP
0001730028100000
00004CA8EB100000
000000CF70000000
0000001200000000
5554443220000000
7BDFFFFFFFEDB951
0000234BC4469DFD
00000008B0000012
00000007C0000000
00000006D0000000
00000004F0000000
00000003F2000000
00000001F4000000
00000000F6000000
00000000D9000000
00000000BC000000
000000009E000000
000000006F600000
000000001DB00000
ENDCHAR
STARTCHAR tcaron
ENCODING 357
SWIDTH 431 0
DWIDTH 10 0
BBX 10 18 0 0
BITMAP
0000000031
0000000097
000000009B
000E40008D
000F70006E
000E80003E
000E900003
001F900000
9DEFFFE800
268ED65200
000DA00000
000DA00000
000DB00000
000DB00000
000CC00000
000AC00000
0007D00000
0002A00000
ENDCHAR
STARTCHAR Utilde
ENCODING 360
SWIDTH 571 0
DWIDTH 14 0
BBX 14 17 0 0
BITMAP
0005DD6003D100
001E42BDAE4000
001D0005930000
00030000000000
09B00000018000
2F20000004F100
4C00000005F300
5C00000004F400
5C00000002F500
4E00000000D700
2F100000009A00
0E400000007E10
0A900000009F50
05E1000005FFB0
00DC10018FADF1
004FEAAED403F4
0004CFD7000031
ENDCHAR
STARTCHAR utilde
ENCODING 361
SWIDTH 501 0
DWIDTH 12 0
BBX 12 16 0 0
BITMAP
001BE9201A70
009A17EADA00
00A400287000
001100000000
140000000000
7C0000001200
AA0000007C00
990000007F10
8B0000007F30
5E0000007F30
2F4000009F40
0BB00002EF60
04F6001CDDB0
009F96DC13F2
0007EE9100E7
000000000077
ENDCHAR
STARTCHAR Umacron
ENCODING 362
SWIDTH 571 0
DWIDTH 14 0
BBX 14 17 0 0
BITMAP
00008CDEE90000
0002DA76880000
00000000000000
00000000000000
09B00000018000
2F20000004F100
4C00000005F300
5C00000004F400
5C00000002F500
4E00000000D700
2F100000009A00
0E400000007E10
0A900000009F50
05E1000005FFB0
00DC10018FADF1
004FEAAED403F4
0004CFD7000031
ENDCHAR
STARTCHAR umacron
ENCODING 363
SWIDTH 501 0
DWIDTH 12 0
BBX 12 14 0 0
BITMAP
002BDEED3000
008C96794000
140000000000
7C0000001200
AA0000007C00
990000007F10
8B0000007F30
5E0000007F30
2F4000009F40
0BB00002EF60
04F6001CDDB0
009F96DC13F2
0007EE9100E7
000000000077
ENDCHAR
STARTCHAR Ubreve
ENCODING 364
SWIDTH 571 0
DWIDTH 14 0
BBX 14 16 0 0
BITMAP
00003500E00000
00001DBD900000
00000143000000
09B00000018000
2F20000004F100
4C00000005F300
5C00000004F400
5C00000002F500
4E00000000D700
2F100000009A00
0E400000007E10
0A900000009F50
05E1000005FFB0
00DC10018FADF1
004FEAAED403F4
0004CFD7000031
ENDCHAR
STARTCHAR ubreve
ENCODING 365
SWIDTH 501 0
DWIDTH 12 0
BBX 12 14 0 0
BITMAP
000800870000
0007CBD20000
140034100000
7C0000001200
AA0000007C00
990000007F10
8B0000007F30
5E0000007F30
2F4000009F40
0BB00002EF60
04F6001CDDB0
009F96DC13F2
0007EE9100E7
000000000077
ENDCHAR
STARTCHAR Uring
ENCODING 366
SWIDTH 571 0
DWIDTH 14 0
BBX 14 18 0 0
BITMAP
00000498000000
00004939800000
00008302B00000
00003B7C500000
00000252000000
09B00000018000
2F20000004F100
4C00000005F300
5C00000004F400
5C00000002F500
4E00000000D700
2F100000009A00
0E400000007E10
0A900000009F50
05E1000005FFB0
00DC10018FADF1
004FEAAED403F4
0004CFD7000031
ENDCHAR
STARTCHAR uring
ENCODING 367
SWIDTH 501 0
DWIDTH 12 0
BBX 12 14 0 0
BITMAP
000039910000
0002B37B0000
1406500D0000
7C02B7B71200
AA0015207C00
990000007F10
8B0000007F30
5E0000007F30
2F4000009F40
0BB00002EF60
04F6001CDDB0
009F96DC13F2
0007EE9100E7
000000000077
ENDCHAR
STARTCHAR Uhungarumlaut
ENCODING 368
SWIDTH 571 0
DWIDTH 14 0
BBX 14 18 0 0
BITMAP
00000430100000
00007F56E20000
0002F65F600000
00014066000000
00000000000000
09B00000018000
2F20000004F100
4C00000005F300
5C00000004F400
5C00000002F500
4E00000000D700
2F100000009A00
0E400000007E10
0A900000009F50
05E1000005FFB0
00DC10018FADF1
004FEAAED403F4
0004CFD7000031
ENDCHAR
STARTCHAR uhungarumlaut
ENCODING 369
SWIDTH 501 0
DWIDTH 12 0
BBX 12 17 0 0
BITMAP
000003301000
00007F55E300
0002F64F7000
000140660000
000000000000
140000000000
7C0000001200
AA0000007C00
990000007F10
8B0000007F30
5E0000007F30
2F4000009F40
0BB00002EF60
04F6001CDDB0
009F96DC13F2
0007EE9100E7
000000000077
ENDCHAR
STARTCHAR Uogonek
ENCODING 370
SWIDTH 571 0
DWIDTH 14 0
BBX 15 16 0 -4
BITMAP
05E1000000810000
0C70000000E50000
0F20000001F70000
1F10000000F80000
0F10000000C90000
0F300000009B0000
0D500000005E0000
0A800000003F4000
06C00000005F9000
02F4000002DFE100
009E20004DCBF500
002EE98CF706F800
0002BFEA20BD6300
0000000003E10000
0000000004F50000
00000000006BCC30
ENDCHAR
STARTCHAR uogonek
ENCODING 371
SWIDTH 501 0
DWIDTH 12 0
BBX 13 16 0 -4
BITMAP
03000000000000
7C000000010000
AA0000006C0000
990000007F1000
8B0000007F2000
6E0000007F3000
2F4000008F4000
0CA00002EF6000
05F4001BEEA000
00BF75CD24F100
0009FFB102F600
000001007FC800
00000001F40000
00000003F30000
000000009ECB30
00000000001100
ENDCHAR
STARTCHAR Wcircumflex
ENCODING 372
SWIDTH 703 0
DWIDTH 17 0
BBX 17 22 0 0
BITMAP
000000007100000000
00000003FB00000000
0000000AFF80000000
0000009F6DF5000000
000009E502DA000000
000002200013000000
000000000000000000
000000000000000000
000000000000000000
000000000000000000
650000000000053000
B800000000000AD000
B9000000000007F500
BA000000000002F900
AB000015000000BE00
9D00003E0000006F20
7F00003F3000001F50
4F30005F9000000E60
0E6000BFF200001F40
09D10AF7CD2001BD00
02EEEE501CE99EE300
003AB300008EE91000
ENDCHAR
STARTCHAR wcircumflex
ENCODING 373
SWIDTH 656 0
DWIDTH 16 0
BBX 16 18 0 0
BITMAP
0000000440000000
0000000BF3000000
0000004FFD100000
000003EA9FB00000
00003EA009F20000
0000040000400000
0000000000000000
0000000000000000
0C00000000000000
6F00000000005300
AB00000440004E10
B9000009A0000C80
B900000AC00007D0
8C00000AE00005F1
3F20001DF30007F1
0BA001BFEC001DD0
02EB9EF73EECFF60
002BEC5002899500
ENDCHAR
STARTCHAR Ycircumflex
ENCODING 374
SWIDTH 403 0
DWIDTH 10 0
BBX 10 23 0 -1
BITMAP
0000440000
0000CE2000
0004FFD100
004E99FB00
03FA009F10
0040000400
3200000000
8900000072
5F200000F3
0DC00004F1
04FA000AD0
004EC32F80
0002CFFF30
000005EC00
000001F600
000005F100
00000AA000
00000E6000
00001F3000
00003F0000
00004F0000
00004F1000
0000040000
ENDCHAR
STARTCHAR ycircumflex
ENCODING 375
SWIDTH 487 0
DWIDTH 12 0
BBX 12 30 0 -12
BITMAP
000004400000
00000CE30000
00004FFD1000
0003E99FB000
003EA009F100
000400004000
000000000000
110000000500
850000000B20
980000000B60
8A0000000B90
6D0000000AB0
2F30000009D0
0C80000009F0
05E100003EF1
00AC2005EFF2
001AFCEE62E3
0000486100C4
0000000000C4
0000000000C4
0000000000D4
0000000000F3
0000000002F2
0000000004F0
0500000006D0
0D7000000A90
08F700001E50
00AFB200AD00
0006EFCEF400
000016993000
ENDCHAR
STARTCHAR Ydieresis
ENCODING 376
SWIDTH 403 0
DWIDTH 10 0
BBX 10 20 0 -1
BITMAP
0056007400
01FF34FE00
0078019600
3200000000
8900000072
5F200000F3
0DC00004F1
04FA000AD0
004EC32F80
0002CFFF30
000005EC00
000001F600
000005F100
00000AA000
00000E6000
00001F3000
00003F0000
00004F0000
00004F1000
0000040000
ENDCHAR
STARTCHAR Zacute
ENCODING 377
SWIDTH 571 0
DWIDTH 14 0
BBX 14 21 0 0
BITMAP
00000000100000
00000008B00000
000001CD200000
00000BC1000000
00000610000000
00000000000000
07BDCB82000000
8EA656BF700000
10000005F30000
00000000A80000
00000000890000
00000000B70000
00000005F60000
00048ADFFFFD30
004DCBEFC55400
000000CB100000
000004E1000000
00002E50000000
0000BC00002571
0000EC67AEFFE3
00007FFFEB8300
ENDCHAR
STARTCHAR zacute
ENCODING 378
SWIDTH 459 0
DWIDTH 11 0
BBX 11 18 0 0
BITMAP
000000100000
000007C00000
0001BE300000
0009D2000000
000510000000
002465200000
2CFEEEF50000
6E30007E0000
0000004F1000
0000006E0000
000000D90000
04689CFDB200
1CDDFF864000
0004F7000000
002EA0000000
00AF20002820
00EFC9ADFE30
004BEEDA6100
ENDCHAR
STARTCHAR Zdotaccent
ENCODING 379
SWIDTH 571 0
DWIDTH 14 0
BBX 14 19 0 0
BITMAP
00000200000000
00002F40000000
00000C40000000
00000000000000
07BDCB82000000
8EA656BF700000
10000005F30000
00000000A80000
00000000890000
00000000B70000
00000005F60000
00048ADFFFFD30
004DCBEFC55400
000000CB100000
000004E1000000
00002E50000000
0000BC00002571
0000EC67AEFFE3
00007FFFEB8300
ENDCHAR
STARTCHAR zdotaccent
ENCODING 380
SWIDTH 459 0
DWIDTH 11 0
BBX 11 17 0 0
BITMAP
000002000000
00001F500000
00000C500000
000000000000
002465200000
2CFEEEF50000
6E30007E0000
0000004F1000
0000006E0000
000000D90000
04689CFDB200
1CDDFF864000
0004F7000000
002EA0000000
00AF20002820
00EFC9ADFE30
004BEEDA6100
ENDCHAR
STARTCHAR Zcaron
ENCODING 381
SWIDTH 571 0
DWIDTH 14 0
BBX 14 19 0 0
BITMAP
00173002810000
0004CA8EB00000
00000CF7000000
00000120000000
07BDCB82000000
8EA656BF700000
10000005F30000
00000000A80000
00000000890000
00000000B70000
00000005F60000
00048ADFFFFD30
004DCBEFC55400
000000CB100000
000004E1000000
00002E50000000
0000BC00002571
0000EC67AEFFE3
00007FFFEB8300
ENDCHAR
STARTCHAR zcaron
ENCODING 382
SWIDTH 459 0
DWIDTH 11 0
BBX 11 17 0 0
BITMAP
046100560000
018D7BF60000
0004FC300000
000030000000
002465200000
2CFEEEF50000
6E30007E0000
0000004F1000
0000006E0000
000000D90000
04689CFDB200
1CDDFF864000
0004F7000000
002EA0000000
00AF20002820
00EFC9ADFE30
004BEEDA6100
ENDCHAR
STARTCHAR florin
ENCODING 402
SWIDTH 376 0
DWIDTH 9 0
BBX 14 24 -3 -7
BITMAP
00000003BDB500
0000004FD79FA0
000000CC1005F8
000003F3000049
000007E0000000
00000AC0000000
00000BC0000000
00000CC0000000
00000BC0000000
00058DFBA87200
002DAAF9ABA300
000003F2000000
000003F2000000
000003F2000000
000004F2000000
000005F1000000
000006F0000000
000007F0000000
020007E0000000
2F3008D0000000
09E309C0000000
009E7CB0000000
0004DFA0000000
00000310000000
ENDCHAR
STARTCHAR AEacute
ENCODING 508
SWIDTH 960 0
DWIDTH 23 0
BBX 23 21 0 0
BITMAP
0000000000002C6000000000
000000000004EA0000000000
00000231001E800000000000
0004DEEF9115000000000000
003E5004DB00000000000000
00A600002E60000000000000
01E1000007E1DDDCCBBBB600
05A0000000E6FA8887766A10
08700000009CF30000000000
09500000005FF30000000000
0B400000002FF30000000000
0C300000000FF30001468500
0D400000000FFCBCEFFC8100
5FFFFEDCBABFF96432000000
2D910012466CE00000000000
0A7000000009D00000000000
0A8000000008D00000000000
0AB000000008D00000000000
08D00000000AD00000001100
05F10000000DFB9AACDFFF60
01D20000000E8BDEEEDB9500
ENDCHAR
STARTCHAR aeacute
ENCODING 509
SWIDTH 881 0
DWIDTH 21 0
BBX 21 19 0 -1
BITMAP
0000000000001000000000
000000000006D000000000
0000000000AE4000000000
0000000007E30000000000
0000000004200000000000
0000000000000000000000
0002CEA2000039CB500000
000797CE5007F958F60000
00000009F34F40008D0000
00000000BDC800003F0000
000256414FF200008E0000
02BFFDDFCFF0003BF50000
1DC51003BFF8CDFC400000
6D1000000AF56530000000
7A00000001E60000000000
3E600000007E2000000000
07FEA9ABDFFDE841001220
0039CEFDA6107EFFEFFD30
0000000000000157873000
ENDCHAR
STARTCHAR Oslashacute
ENCODING 510
SWIDTH 609 0
DWIDTH 15 0
BBX 14 20 0 -3
BITMAP
00000004600000
0000008E400000
000009E4000000
00000C30000000
00000000040000
000588403D0000
01CECDFECA0000
0BB20026EF8000
4E100001F7FB00
7A000007B03F90
8900000D6006F3
7B00004E1000CA
4F2000AA00007D
0DC001F400008D
04FC37D00007F6
005EFEA469EE70
0001BFFFC95100
0000C900000000
0001E200000000
00001000000000
ENDCHAR
STARTCHAR oslashacute
ENCODING 511
SWIDTH 487 0
DWIDTH 12 0
BBX 11 15 0 0
BITMAP
000000040000
000002CA0000
00003EA00000
0000B9000000
000020000000
00039CEC7E30
009FB88EFD00
0AD30004FF40
3E20001DAAB0
7A0000BE15E0
8A0007F407E0
6E103F902EB0
1E92DC03DF40
05FEF7AFF700
007DEFEA3000
ENDCHAR
STARTCHAR Scommaaccent
ENCODING 536
SWIDTH 627 0
DWIDTH 15 0
BBX 15 23 0 -8
BITMAP
0000014663000000
00008EDBBDFA1000
0009B200005DD000
000C500000014000
000A900000000000
0002E91000000000
00002BE710000000
0000005DE8100000
000000006DE80000
17000000017EC200
7D0000000001AD10
4F30000000002F50
08D3000000003F50
006EB7543347DC00
00005BEFFFFC8100
0000000122100000
0000000000000000
0000005400000000
000000DC00000000
0000007E00000000
0000008D00000000
000000E900000000
0000007100000000
ENDCHAR
STARTCHAR scommaaccent
ENCODING 537
SWIDTH 514 0
DWIDTH 12 0
BBX 12 19 0 -8
BITMAP
006BDDA30000
0BE9669E2000
2F40000A5000
0E6000092000
05FA53200000
0028BEFFD820
000000026CE3
0000000001F9
5D40000001F9
09FC75557DE3
0049CEFFEA30
000000000000
000000000000
000004500000
00000BE00000
000005F00000
000006F00000
00000DB00000
000007200000
ENDCHAR
STARTCHAR circumflex
ENCODING 710
SWIDTH 375 0
DWIDTH 9 0
BBX 7 6 1 12
BITMAP
00071000
003FA000
00AFF800
09F6DF50
9E402EA0
22000230
ENDCHAR
STARTCHAR caron
ENCODING 711
SWIDTH 375 0
DWIDTH 9 0
BBX 7 4 1 11
BITMAP
56100550
18D7CF50
005FC200
00030000
ENDCHAR
STARTCHAR breve
ENCODING 728
SWIDTH 224 0
DWIDTH 5 0
BBX 5 3 0 9
BITMAP
5401D0
2DBD70
015200
ENDCHAR
STARTCHAR dotaccent
ENCODING 729
SWIDTH 152 0
DWIDTH 4 0
BBX 2 3 1 11
BITMAP
20
C9
89
ENDCHAR
STARTCHAR ring
ENCODING 730
SWIDTH 333 0
DWIDTH 8 0
BBX 5 5 2 9
BITMAP
059600
773B50
B00580
6A7D20
034100
ENDCHAR
STARTCHAR ogonek
ENCODING 731
SWIDTH 254 0
DWIDTH 6 0
BBX 6 5 0 -4
BITMAP
02AC00
1EA100
4E0000
2EA541
026882
ENDCHAR
STARTCHAR tilde
ENCODING 732
SWIDTH 402 0
DWIDTH 10 0
BBX 9 4 0 9
BITMAP
09EB3007B0
5D14DBCC20
6800178100
0300000000
ENDCHAR
STARTCHAR hungarumlaut
ENCODING 733
SWIDTH 264 0
DWIDTH 6 0
BBX 7 4 0 10
BITMAP
00420100
09F47E10
4E47F500
23074000
ENDCHAR
STARTCHAR Wgrave
ENCODING 7808
SWIDTH 703 0
DWIDTH 17 0
BBX 17 18 0 0
BITMAP
000000030000000000
00000009D300000000
00000000AE30000000
000000000620000000
000000000000000000
000000000000000000
650000000000053000
B800000000000AD000
B9000000000007F500
BA000000000002F900
AB000015000000BE00
9D00003E0000006F20
7F00003F3000001F50
4F30005F9000000E60
0E6000BFF200001F40
09D10AF7CD2001BD00
02EEEE501CE99EE300
003AB300008EE91000
ENDCHAR
STARTCHAR wgrave
ENCODING 7809
SWIDTH 656 0
DWIDTH 16 0
BBX 16 14 0 0
BITMAP
0000002200000000
0000003F80000000
00000004E9000000
0000000036000000
0C00000000000000
6F00000000005300
AB00000440004E10
B9000009A0000C80
B900000AC00007D0
8C00000AE00005F1
3F20001DF30007F1
0BA001BFEC001DD0
02EB9EF73EECFF60
002BEC5002899500
ENDCHAR
STARTCHAR Wacute
ENCODING 7810
SWIDTH 703 0
DWIDTH 17 0
BBX 17 18 0 0
BITMAP
000000000100000000
000000008B00000000
0000001CD200000000
000000AC1000000000
000000610000000000
000000000000000000
650000000000053000
B800000000000AD000
B9000000000007F500
BA000000000002F900
AB000015000000BE00
9D00003E0000006F20
7F00003F3000001F50
4F30005F9000000E60
0E6000BFF200001F40
09D10AF7CD2001BD00
02EEEE501CE99EE300
003AB300008EE91000
ENDCHAR
STARTCHAR wacute
ENCODING 7811
SWIDTH 656 0
DWIDTH 16 0
BBX 16 16 0 0
BITMAP
0000000001000000
000000019A000000
0000002DC1000000
000000CB10000000
0000006000000000
0000000000000000
0C00000000000000
6F00000000005300
AB00000440004E10
B9000009A0000C80
B900000AC00007D0
8C00000AE00005F1
3F20001DF30007F1
0BA001BFEC001DD0
02EB9EF73EECFF60
002BEC5002899500
ENDCHAR
STARTCHAR Wdieresis
ENCODING 7812
SWIDTH 703 0
DWIDTH 17 0
BBX 17 17 0 0
BITMAP
000001820381000000
000008FA0CF7000000
000003A30591000000
000000000000000000
000000000000000000
650000000000053000
B800000000000AD000
B9000000000007F500
BA000000000002F900
AB000015000000BE00
9D00003E0000006F20
7F00003F3000001F50
4F30005F9000000E60
0E6000BFF200001F40
09D10AF7CD2001BD00
02EEEE501CE99EE300
003AB300008EE91000
ENDCHAR
STARTCHAR wdieresis
ENCODING 7813
SWIDTH 656 0
DWIDTH 16 0
BBX 16 13 0 0
BITMAP
0000066007400000
00002FF25FD00000
0000087019500000
0C00000000000000
6F00000000005300
AB00000440004E10
B9000009A0000C80
B900000AC00007D0
8C00000AE00005F1
3F20001DF30007F1
0BA001BFEC001DD0
02EB9EF73EECFF60
002BEC5002899500
ENDCHAR
STARTCHAR Ygrave
ENCODING 7922
SWIDTH 403 0
DWIDTH 10 0
BBX 10 21 0 -1
BITMAP
0003100000
0008E40000
00009F4000
0000063000
3200000000
8900000072
5F200000F3
0DC00004F1
04FA000AD0
004EC32F80
0002CFFF30
000005EC00
000001F600
000005F100
00000AA000
00000E6000
00001F3000
00003F0000
00004F0000
00004F1000
0000040000
ENDCHAR
STARTCHAR ygrave
ENCODING 7923
SWIDTH 487 0
DWIDTH 12 0
BBX 12 26 0 -12
BITMAP
000022000000
00003F800000
000005F80000
110000350500
850000000B20
980000000B60
8A0000000B90
6D0000000AB0
2F30000009D0
0C80000009F0
05E100003EF1
00AC2005EFF2
001AFCEE62E3
0000486100C4
0000000000C4
0000000000C4
0000000000D4
0000000000F3
0000000002F2
0000000004F0
0500000006D0
0D7000000A90
08F700001E50
00AFB200AD00
0006EFCEF400
000016993000
ENDCHAR
STARTCHAR endash
ENCODING 8211
SWIDTH 287 0
DWIDTH 7 0
BBX 7 3 0 5
BITMAP
16899810
8FECCE70
22000000
ENDCHAR
STARTCHAR emdash
ENCODING 8212
SWIDTH 512 0
DWIDTH 12 0
BBX 12 3 0 5
BITMAP
003577889981
4EFFFEDCBCE6
232100000000
ENDCHAR
STARTCHAR quoteleft
ENCODING 8216
SWIDTH 102 0
DWIDTH 2 0
BBX 3 7 0 11
BITMAP
3100
8800
8C00
7E00
5F00
1F10
0300
ENDCHAR
STARTCHAR quoteright
ENCODING 8217
SWIDTH 102 0
DWIDTH 2 0
BBX 3 7 0 11
BITMAP
3100
8800
8C00
7E00
5F00
1F10
0300
ENDCHAR
STARTCHAR quotesinglbase
ENCODING 8218
SWIDTH 102 0
DWIDTH 2 0
BBX 3 6 0 -1
BITMAP
6700
6D00
6F00
4F20
2F20
0910
ENDCHAR
STARTCHAR quotedblleft
ENCODING 8220
SWIDTH 234 0
DWIDTH 6 0
BBX 5 9 0 11
BITMAP
000100
500940
B50990
9A09B0
7E08D0
4F27E0
1E67E0
0774E0
000020
ENDCHAR
STARTCHAR quotedblright
ENCODING 8221
SWIDTH 234 0
DWIDTH 6 0
BBX 5 9 0 11
BITMAP
000100
500940
B50990
9A09B0
7E08D0
4F27E0
1E67E0
0774E0
000020
ENDCHAR
STARTCHAR quotedblbase
ENCODING 8222
SWIDTH 341 0
DWIDTH 8 0
BBX 6 8 1 -3
BITMAP
000040
2701E0
2E01F2
1F41F4
0D70F6
0AB0E7
05E1D7
007196
ENDCHAR
STARTCHAR dagger
ENCODING 8224
SWIDTH 375 0
DWIDTH 9 0
BBX 9 16 0 0
BITMAP
0005000000
000D100000
000B600000
0007A00000
0003D00000
0035F65300
2DFFFFFF40
3753C51310
0000C60000
0000B80000
0000B90000
0000B90000
0000A90000
0000AA0000
00009B0000
00007A0000
ENDCHAR
STARTCHAR daggerdbl
ENCODING 8225
SWIDTH 375 0
DWIDTH 9 0
BBX 13 18 -2 0
BITMAP
00000C30000000
00000E70000000
00000CA0000000
000008C0000000
000005E0000000
000002F1000000
036778F8777200
3EFFFFFDBADF10
000000A6000400
001223A8442000
0EFFFFFFFFF700
01222299222000
00000088000000
00000089000000
00000089000000
00000089000000
0000008B000000
0000007A000000
ENDCHAR
STARTCHAR bullet
ENCODING 8226
SWIDTH 341 0
DWIDTH 8 0
BBX 5 5 2 4
BITMAP
016200
0CFE20
6FFF90
5FFF80
0AFA00
ENDCHAR
STARTCHAR ellipsis
ENCODING 8230
SWIDTH 612 0
DWIDTH 15 0
BBX 13 5 1 0
BITMAP
06100161001610
7FC008FB00AF90
DFF30EFF11FFE0
CFF20DFE00EFD0
4E6005E5007D40
ENDCHAR
STARTCHAR guilsinglleft
ENCODING 8249
SWIDTH 487 0
DWIDTH 12 0
BBX 11 10 0 0
BITMAP
0000000017A0
00000004DC30
0000019F8000
00003DD30000
0007E8000000
02CD30000000
2DC100000000
CFFC86410000
16ACEFFFD600
00000134AE20
ENDCHAR
STARTCHAR guilsinglright
ENCODING 8250
SWIDTH 403 0
DWIDTH 10 0
BBX 10 11 0 0
BITMAP
4F80000000
08FC610000
003AFEA630
000027AEF7
00000008F6
0000005FA0
000008F900
0003CE5000
007FC20000
0AF8000000
4D30000000
ENDCHAR
STARTCHAR fraction
ENCODING 8260
SWIDTH 309 0
DWIDTH 7 0
BBX 7 18 0 0
BITMAP
000000C0
000004E0
000007B0
00000B70
00001F30
00007E00
0000C900
0002F400
0008E000
000D9000
004F4000
009D0000
00E80000
05F20000
0CC00000
4F500000
9D000000
95000000
ENDCHAR
STARTCHAR Euro
ENCODING 8364
SWIDTH 741 0
DWIDTH 18 0
BBX 17 17 0 0
BITMAP
000000000001699100
00000000004DEAA800
0000000007D7100300
00000001AC10000000
0012235CFFDA400000
6DFFFFFFCCECE30000
986439E30000000000
00000B600000000000
00002F200345300000
00139FDDFFDC800000
AFFEFC642000000000
2200C7000000000000
000098000000000000
00005B000000000000
00001F400000014670
000007F9668ADFFF90
0000006CFFECA74100
ENDCHAR
STARTCHAR trademark
ENCODING 8482
SWIDTH 1116 0
DWIDTH 27 0
BBX 27 15 0 0
BITMAP
9AAA998765431057000000019100
368ACDEFFEEFFEEF70000006F300
00000008B00148BEE200000CF200
00000007B0000008FA00005FF100
00000006C0000007FF9227FFF000
00000005D0000008B5FFFFCCF000
00000004F0000008B0266304F100
00000003F2000009B0000003F200
00000001F400000AB0000002F400
00000000E700000AB0000000F700
00000000D900000BB0000000D900
00000000BC00000BB0000000CC00
000000009E10000BB0000000AE00
000000006F70000AB00000009F00
000000001EB00002200000006F10
ENDCHAR
STARTCHAR minus
ENCODING 8722
SWIDTH 287 0
DWIDTH 7 0
BBX 7 3 0 5
BITMAP
16899810
8FECCE70
22000000
ENDCHAR
STARTCHAR commaaccent
ENCODING 63171
SWIDTH 375 0
DWIDTH 9 0
BBX 3 6 2 -8
BITMAP
0720
3F80
0B90
0C80
4F50
2700
ENDCHAR
STARTCHAR fi
ENCODING 64257
SWIDTH 551 0
DWIDTH 13 0
BBX 12 18 -1 -1
BITMAP
000003BDB500
00004FC79FA0
0000CA0005F8
0003E102D249
000790008300
000A70000000
000B80000100
000CA0000F20
000BC0000F30
058DFBA87F30
2DAAFECECF60
0000DB000E80
00006F200DB0
00001EB00BE0
000007F50AF1
000001EE17F3
0000004E33F3
000000000060
ENDCHAR
STARTCHAR fl
ENCODING 64258
SWIDTH 723 0
DWIDTH 17 0
BBX 12 18 -1 -1
BITMAP
000003BDB500
00004FC79FA0
0000CA0005F8
0003E1002449
000790005E00
000A70006F00
000B80006F10
000CA0006F20
000BC0006F20
058DFBA8BF20
2DAAFECDEF30
0000DB007F30
00006F206F30
00001EB06F30
000007F55F20
000001EE4F10
0000004E5E00
000000000100
ENDCHAR
STARTCHAR .notdef
ENCODING -1
SWIDTH 375 0
DWIDTH 9 0
BBX 1 1 0 0
BITMAP
00
ENDCHAR
STARTCHAR .null
ENCODING -1
SWIDTH 0 0
DWIDTH 0 0
BBX 1 1 0 0
BITMAP
00
ENDCHAR
STARTCHAR nonmarkingreturn
ENCODING -1
SWIDTH 375 0
DWIDTH 9 0
BBX 1 1 0 0
BITMAP
00
ENDCHAR
ENDFONT
